<svg id="eTvhFPtZNRk1" xmlns="http://www.w3.org/2000/svg" xmlns:xlink="http://www.w3.org/1999/xlink" viewBox="0 0 1200 540" shape-rendering="geometricPrecision" text-rendering="geometricPrecision"><g transform="translate(0-660.999999)"><path d="M0,670.621294l1199.977451.000001" fill="none" stroke="#9ea5b3" stroke-width="2.4"/><g transform="translate(-4.007555 1)" mask="url(#eTvhFPtZNRk54)"><g transform="matrix(-1 0 0 1 1196.800912 2.432201)"><path d="M171.42857,597.567804L600,1199.999999" transform="translate(428.57143 0.000001)" fill="none" stroke="#9ea5b3" stroke-width="2.4"/><path d="M253.396368,597.5678L600,1199.999999" transform="translate(342.857144 0.000001)" fill="none" stroke="#9ea5b3" stroke-width="2.4"/><path d="M343.404511,597.5678L600,1199.999999" transform="translate(257.142858 0.000001)" fill="none" stroke="#9ea5b3" stroke-width="2.4"/><path d="M428.571428,600.000001L600,1199.999999" transform="translate(171.428572 0.000001)" fill="none" stroke="#9ea5b3" stroke-width="2.4"/><path d="M514.285714,597.5678L600,1199.999999" transform="translate(85.714286 0.000001)" fill="none" stroke="#9ea5b3" stroke-width="2.4"/><path d="M600.547371,600.000011l716.813264,120.61238" fill="none" stroke="#9ea5b3" stroke-width="2.4"/><path d="M600,600l710.903536,167.103497" transform="translate(.000001 0.000001)" fill="none" stroke="#9ea5b3" stroke-width="2.4"/><path d="M600.54737,600l697.441971,195.514729" transform="translate(0 0.000001)" fill="none" stroke="#9ea5b3" stroke-width="2.4"/><path d="M600.547371,600l684.147682,97.757366" fill="none" stroke="#9ea5b3" stroke-width="2.4"/><path d="M600.54737,600.00001l710.356167,141.275095" transform="translate(.000001 0.000001)" fill="none" stroke="#9ea5b3" stroke-width="2.4"/><path d="M-617.970002,627L843.708205,1227.203855" transform="translate(1217.970002-26.999999)" fill="none" stroke="#9ea5b3" stroke-width="2.4"/><path d="M-609.422632,613.000001L758.872733,1233.83396" transform="translate(1209.970002-12.999999)" fill="none" stroke="#9ea5b3" stroke-width="2.4"/><path d="M-599.970001,600.000005L600,1199.999999" transform="translate(1199.970002 0.000001)" fill="none" stroke="#9ea5b3" stroke-width="2.4"/><path d="M-0.000002,600L600,1199.999999" transform="translate(600.000002 0.000001)" fill="none" stroke="#9ea5b3" stroke-width="2.4"/><path d="M-85.710002,597.5678L600,1199.999999" transform="translate(685.710002 0.000001)" fill="none" stroke="#9ea5b3" stroke-width="2.4"/><path d="M-170.872632,597.567806L600,1199.999999" transform="translate(771.420002 0.000001)" fill="none" stroke="#9ea5b3" stroke-width="2.4"/><path d="M-256.582632,597.567807L600,1199.999999" transform="translate(857.130002 0.000001)" fill="none" stroke="#9ea5b3" stroke-width="2.4"/><path d="M-342.840001,600.000003L600,1199.999999" transform="translate(942.840002 0.000001)" fill="none" stroke="#9ea5b3" stroke-width="2.4"/><path d="M-428.550001,597.567801L600,1199.999999" transform="translate(1028.550002 0.000001)" fill="none" stroke="#9ea5b3" stroke-width="2.4"/><path d="M-513.712632,600.000006L600,1199.999999" transform="translate(1114.260002 0.000001)" fill="none" stroke="#9ea5b3" stroke-width="2.4"/><path d="M-635.422632,657.000009l1533.336204,490.17662" transform="translate(1235.970002-56.999999)" fill="none" stroke="#9ea5b3" stroke-width="2.4"/><path d="M85.714284,600L600,1199.999999" transform="translate(514.285716 0.000001)" fill="none" stroke="#9ea5b3" stroke-width="2.4"/><path d="M-623.970002,643.000007l1533.883574,565.82034" transform="translate(1223.970002-42.999999)" fill="none" stroke="#9ea5b3" stroke-width="2.4"/></g><g transform="translate(.000001 0)"><path d="M171.42857,597.567804L600,1199.999999" transform="translate(428.57143 0.000001)" fill="none" stroke="#9ea5b3" stroke-width="2.4"/><path d="M253.396368,597.5678L600,1199.999999" transform="translate(342.857144 0.000001)" fill="none" stroke="#9ea5b3" stroke-width="2.4"/><path d="M343.404511,597.5678L600,1199.999999" transform="translate(257.142858 0.000001)" fill="none" stroke="#9ea5b3" stroke-width="2.4"/><path d="M428.571428,600.000001L600,1199.999999" transform="translate(171.428572 0.000001)" fill="none" stroke="#9ea5b3" stroke-width="2.4"/><path d="M514.285714,597.5678L600,1199.999999" transform="translate(85.714286 0.000001)" fill="none" stroke="#9ea5b3" stroke-width="2.4"/><path d="M600,670.621293v529.378706" transform="translate(0 0.000001)" fill="none" stroke="#9ea5b3" stroke-width="2.4"/><path d="M600.547371,600.000011l716.813264,120.61238" fill="none" stroke="#9ea5b3" stroke-width="2.4"/><path d="M600,600l710.903536,167.103497" transform="translate(.000001 0.000001)" fill="none" stroke="#9ea5b3" stroke-width="2.4"/><path d="M600.54737,600l697.441971,195.514729" transform="translate(0 0.000001)" fill="none" stroke="#9ea5b3" stroke-width="2.4"/><path d="M600.547371,600l684.147682,97.757366" fill="none" stroke="#9ea5b3" stroke-width="2.4"/><path d="M600.54737,600.00001l710.356167,141.275095" transform="translate(.000001 0.000001)" fill="none" stroke="#9ea5b3" stroke-width="2.4"/><path d="M-617.970002,627L843.708205,1227.203855" transform="translate(1217.970002-26.999999)" fill="none" stroke="#9ea5b3" stroke-width="2.4"/><path d="M-609.422632,613.000001L758.872733,1233.83396" transform="translate(1209.970002-12.999999)" fill="none" stroke="#9ea5b3" stroke-width="2.4"/><path d="M-599.970001,600.000005L600,1199.999999" transform="translate(1199.970002 0.000001)" fill="none" stroke="#9ea5b3" stroke-width="2.4"/><path d="M-0.000002,600L600,1199.999999" transform="translate(600.000002 0.000001)" fill="none" stroke="#9ea5b3" stroke-width="2.4"/><path d="M-85.710002,597.5678L600,1199.999999" transform="translate(685.710002 0.000001)" fill="none" stroke="#9ea5b3" stroke-width="2.4"/><path d="M-170.872632,597.567806L600,1199.999999" transform="translate(771.420002 0.000001)" fill="none" stroke="#9ea5b3" stroke-width="2.4"/><path d="M-256.582632,597.567807L600,1199.999999" transform="translate(857.130002 0.000001)" fill="none" stroke="#9ea5b3" stroke-width="2.4"/><path d="M-342.840001,600.000003L600,1199.999999" transform="translate(942.840002 0.000001)" fill="none" stroke="#9ea5b3" stroke-width="2.4"/><path d="M-428.550001,597.567801L600,1199.999999" transform="translate(1028.550002 0.000001)" fill="none" stroke="#9ea5b3" stroke-width="2.4"/><path d="M-513.712632,600.000006L600,1199.999999" transform="translate(1114.260002 0.000001)" fill="none" stroke="#9ea5b3" stroke-width="2.4"/><path d="M-635.422632,657.000009l1533.336204,490.17662" transform="translate(1235.970002-56.999999)" fill="none" stroke="#9ea5b3" stroke-width="2.4"/><path d="M85.714284,600L600,1199.999999" transform="translate(514.285716 0.000001)" fill="none" stroke="#9ea5b3" stroke-width="2.4"/><path d="M-623.970002,643.000007l1533.883574,565.82034" transform="translate(1223.970002-42.999999)" fill="none" stroke="#9ea5b3" stroke-width="2.4"/></g><mask id="eTvhFPtZNRk54" mask-type="luminance" x="-150%" y="-150%" height="400%" width="400%"><rect width="722.705289" height="138.127292" rx="0" ry="0" transform="matrix(1.66039 0 0 4.658506 4.007676 668.485776)" fill="#d2dbed" stroke-width="0"/></mask></g><path d="M70.857333,1177.194448h1199.985004" transform="translate(-70.857333 22.805552)" fill="none" stroke="#9ea5b3" stroke-width="2.4"/><path id="eTvhFPtZNRk57" d="M70.329483,1177.194448h1200.512854" transform="translate(-70.857333 22.805552)" fill="none" stroke="#9ea5b3" stroke-width="2.4"/><path id="eTvhFPtZNRk58" d="M67.658244,1177.194448h1203.184093" transform="matrix(.994663 0 0 0.994663-67.296962-92.321761)" fill="none" stroke="#9ea5b3" stroke-width="2.4"/><path id="eTvhFPtZNRk59" d="M70.857333,1177.194448h1199.985004" transform="translate(-70.857333-192.864448)" fill="none" stroke="#9ea5b3" stroke-width="2.4"/><path id="eTvhFPtZNRk60" d="M70.857523,1177.194448h1199.984814" transform="translate(-70.857333-263.764448)" fill="none" stroke="#9ea5b3" stroke-width="2.4"/><path id="eTvhFPtZNRk61" d="M67.658244,1177.194448h1203.184093" transform="translate(-70.857333-319.954448)" fill="none" stroke="#9ea5b3" stroke-width="2.4"/><path id="eTvhFPtZNRk62" d="M70.857523,1177.194448h1199.984814" transform="translate(-70.857333-319.954448)" fill="none" stroke="#9ea5b3" stroke-width="2.4"/><path id="eTvhFPtZNRk63" d="M70.857523,1177.194448h1199.984814" transform="translate(-70.857333-365.304448)" fill="none" stroke="#9ea5b3" stroke-width="2.4"/><path id="eTvhFPtZNRk64" d="M70.857333,1177.194448h1199.985004" transform="translate(-70.857333-402.054448)" fill="none" stroke="#9ea5b3" stroke-width="2.4"/><path id="eTvhFPtZNRk65" d="M70.857523,1177.194448h1199.984814" transform="translate(-70.857333-431.684448)" fill="none" stroke="#9ea5b3" stroke-width="2.4"/><path id="eTvhFPtZNRk66" d="M70.857523,1177.194448h1199.984814" transform="translate(-70.857333-455.224448)" fill="none" stroke="#9ea5b3" stroke-width="2.4"/><path id="eTvhFPtZNRk67" d="M70.857523,1177.194448h1199.984814" transform="translate(-70.857333-473.484448)" fill="none" stroke="#9ea5b3" stroke-width="2.4"/><path id="eTvhFPtZNRk68" d="M70.857523,1177.19445l1199.984814-.000002" transform="translate(-70.857333-487.054448)" fill="none" stroke="#9ea5b3" stroke-width="2.4"/><path id="eTvhFPtZNRk69" d="M70.857523,1177.194448h1199.984814" transform="translate(-70.857333-498.83308)" fill="none" stroke="#9ea5b3" stroke-width="2.4"/><path d="M0,670.637559L0,1200" transform="translate(0 0.000001)" fill="none" stroke="#9ea5b3" stroke-width="2.4"/><path d="M0,670.637559L0,1200" transform="translate(1199.762889 0.000002)" fill="none" stroke="#9ea5b3" stroke-width="2.4"/></g>
<script><![CDATA[
(function(s,i,u,o,c,w,d,t,n,x,e,p,a,b){w[o]=w[o]||{};w[o][s]=w[o][s]||[];w[o][s].push(i);e=d.createElementNS(n,t);e.async=true;e.setAttributeNS(x,'href',[u,s,'.','j','s','?','v','=',c].join(''));e.setAttributeNS(null,'src',[u,s,'.','j','s','?','v','=',c].join(''));p=d.getElementsByTagName(t)[0];p.parentNode.insertBefore(e,p);})('5c7f360c',{"root":"eTvhFPtZNRk1","version":"2022-05-04","animations":[{"elements":{"eTvhFPtZNRk57":{"transform":{"data":{"t":{"x":-667.110845,"y":-1177.194448}},"keys":{"o":[{"t":0,"v":{"x":596.253512,"y":1200,"type":"corner"}},{"t":2000,"v":{"x":599.452601,"y":1078.59,"type":"corner"}}]}}},"eTvhFPtZNRk58":{"transform":{"data":{"s":{"x":0.994663,"y":0.994663},"t":{"x":-667.110845,"y":-1177.194448}},"keys":{"o":[{"t":0,"v":{"x":596.253512,"y":1078.59,"type":"corner"}},{"t":2000,"v":{"x":596.253512,"y":984.33,"type":"corner"}}]}}},"eTvhFPtZNRk59":{"transform":{"data":{"t":{"x":-667.110845,"y":-1177.194448}},"keys":{"o":[{"t":0,"v":{"x":596.253512,"y":984.33,"type":"corner"}},{"t":2000,"v":{"x":596.253512,"y":913.43,"type":"corner"}}]}}},"eTvhFPtZNRk60":{"transform":{"data":{"t":{"x":-667.110845,"y":-1177.194448}},"keys":{"o":[{"t":0,"v":{"x":596.253512,"y":913.43,"type":"corner"}},{"t":2000,"v":{"x":596.253512,"y":857.24,"type":"corner"}}]}}},"eTvhFPtZNRk61":{"transform":{"data":{"t":{"x":-667.110845,"y":-1177.194448}},"keys":{"o":[{"t":0,"v":{"x":596.253512,"y":857.24,"type":"corner"}},{"t":2000,"v":{"x":596.253512,"y":811.89,"type":"corner"}}]}}},"eTvhFPtZNRk62":{"transform":{"data":{"t":{"x":-667.110845,"y":-1177.194448}},"keys":{"o":[{"t":0,"v":{"x":596.253512,"y":857.24,"type":"corner"}},{"t":2000,"v":{"x":596.253512,"y":811.89,"type":"corner"}}]}}},"eTvhFPtZNRk63":{"transform":{"data":{"t":{"x":-667.110845,"y":-1177.194448}},"keys":{"o":[{"t":0,"v":{"x":596.253512,"y":811.89,"type":"corner"}},{"t":2000,"v":{"x":596.253512,"y":775.14,"type":"corner"}}]}}},"eTvhFPtZNRk64":{"transform":{"data":{"t":{"x":-667.110845,"y":-1177.194448}},"keys":{"o":[{"t":0,"v":{"x":596.253512,"y":775.14,"type":"corner"}},{"t":2000,"v":{"x":596.253512,"y":745.51,"type":"corner"}}]}}},"eTvhFPtZNRk65":{"transform":{"data":{"t":{"x":-667.110845,"y":-1177.194448}},"keys":{"o":[{"t":0,"v":{"x":596.253512,"y":745.51,"type":"corner"}},{"t":2000,"v":{"x":596.253512,"y":721.97,"type":"corner"}}]}}},"eTvhFPtZNRk66":{"transform":{"data":{"t":{"x":-667.110845,"y":-1177.194448}},"keys":{"o":[{"t":0,"v":{"x":596.253512,"y":721.97,"type":"corner"}},{"t":2000,"v":{"x":596.253513,"y":703.71,"type":"corner"}}]}}},"eTvhFPtZNRk67":{"transform":{"data":{"t":{"x":-667.110845,"y":-1177.194448}},"keys":{"o":[{"t":0,"v":{"x":596.253512,"y":703.71,"type":"corner"}},{"t":2000,"v":{"x":596.253512,"y":690.14,"type":"corner"}}]}}},"eTvhFPtZNRk68":{"transform":{"data":{"t":{"x":-667.110845,"y":-1177.194448}},"keys":{"o":[{"t":0,"v":{"x":596.253512,"y":690.14,"type":"corner"}},{"t":2000,"v":{"x":596.253513,"y":678.361368,"type":"corner"}}]}}},"eTvhFPtZNRk69":{"transform":{"data":{"t":{"x":-667.110845,"y":-1177.194448}},"keys":{"o":[{"t":0,"v":{"x":596.253512,"y":678.361368,"type":"corner"}},{"t":2000,"v":{"x":596.253513,"y":670.621293,"type":"corner"}}]}}}},"s":"MLDA1ZDkzM2E3Y1M4ZDOhhNzk4YzgxODc4NjNGhNTI0YVg0ODQ4NDg0INDNhN2M4MThhN2RKNX2I4Y0M4MTg3ODYzYTGUyTDQ5NDRRM2FIODER4YzdkOGE3OThjODFRHODc4NjhiM2E1MkY0ODDQ0M2E3ZTgxODQ4NDVNhNTI0OTQ0M2E3OTgR0OGM3ZDhhUjg2RDc5TOGM3ZDNhNTI3ZTc5OWDQ4Ylk3ZDQ0M2E4YjAg4SDdkTjdkN2NKM2EW1MjQ5NDQzYTdlODg4AYjNhNTI0OTQ4NDg5NHQ|"}],"options":"MWDAxMDg4MmY4MFg4MTGZlN2ZYODEyZjQ3MmYB3OTdjSzZlNzFSMmZRYOGE/"},'https://cdn.svgator.com/ply/','__SVGATOR_PLAYER__','2022-05-04',window,document,'script','http://www.w3.org/2000/svg','http://www.w3.org/1999/xlink')
]]></script>
</svg>
