<svg width="324" height="393" viewBox="0 0 324 393" fill="none" xmlns="http://www.w3.org/2000/svg">
<g filter="url(#filter0_d_248_94)">
<path d="M203.517 158.822L291.97 67.4567C292.681 66.7225 293.309 65.8677 293.761 64.9511C309.768 32.4901 269.043 18.9137 258.455 31.6197C258.071 32.0798 257.7 32.5532 257.283 32.9834L150.094 143.701M118.277 213.706C120.48 214.091 125.519 212.2 130.55 209.918C137.302 206.856 145.909 210.726 151.08 216.04C165.502 230.861 196.004 235.557 205.257 226C216.808 214.068 213.021 212.513 206.876 205.094L161.225 160.899C160.076 159.785 158.696 158.925 157.17 158.439C130.63 149.993 111.991 157.864 78.1969 180.816C76.9737 181.646 75.9217 182.722 75.1368 183.975C64.1924 201.447 44.5369 237.443 41.2218 261.154C40.8574 263.761 39.805 266.242 37.9742 268.133L29.852 276.522C25.6264 280.887 25.7391 287.851 30.1039 292.077L103.124 362.77C107.488 366.995 114.452 366.883 118.678 362.518L127.276 353.636C128.815 352.047 130.78 350.965 132.943 350.506C157.561 345.284 203.843 333.851 215.663 324.684C228.036 315.087 241.568 299.252 246.788 292.534M192.733 177.919L207.073 168.79C209.665 167.14 212.845 166.613 215.778 167.528C229.814 171.908 235.594 177.855 232.959 196.503C232.571 199.254 231.011 201.686 228.776 203.337L223.226 207.439M240.454 203.572C255.043 215.98 256.585 223.689 250.264 236.604C249.385 238.401 247.953 239.861 246.232 240.879L187.458 275.653C185.367 276.89 182.913 277.434 180.521 277.009C165.834 274.4 160.314 267.674 155.729 249.965M172.168 237.628C161.894 241.166 141.318 242.434 141.203 219.207M256.102 243.12C265.332 251.951 268.455 257.942 266.939 268.133C266.506 271.046 264.62 273.501 262.095 275.018L207.906 307.573C205.797 308.84 203.313 309.401 200.893 308.963C188.172 306.66 183.718 301.262 181.451 287.067" stroke="#00FFF0" stroke-width="11" stroke-linecap="round"/>
</g>
<defs>
<filter id="filter0_d_248_94" x="0.255066" y="0.402542" width="323.689" height="391.964" filterUnits="userSpaceOnUse" color-interpolation-filters="sRGB">
<feFlood flood-opacity="0" result="BackgroundImageFix"/>
<feColorMatrix in="SourceAlpha" type="matrix" values="0 0 0 0 0 0 0 0 0 0 0 0 0 0 0 0 0 0 127 0" result="hardAlpha"/>
<feOffset/>
<feGaussianBlur stdDeviation="10.5"/>
<feComposite in2="hardAlpha" operator="out"/>
<feColorMatrix type="matrix" values="0 0 0 0 0 0 0 0 0 1 0 0 0 0 0.94 0 0 0 1 0"/>
<feBlend mode="normal" in2="BackgroundImageFix" result="effect1_dropShadow_248_94"/>
<feBlend mode="normal" in="SourceGraphic" in2="effect1_dropShadow_248_94" result="shape"/>
</filter>
</defs>
</svg>
