<svg width="156" height="269" viewBox="0 0 156 269" fill="none" xmlns="http://www.w3.org/2000/svg">
<g filter="url(#filter0_dd_248_90)">
<path d="M28.6691 89.3888L27.4873 92.1462L27.499 92.1512L27.5107 92.1561L28.6691 89.3888ZM26.5811 87.3728L29.346 86.2086L29.346 86.2086L26.5811 87.3728ZM25.9331 83.8448L28.9314 83.7449L28.9311 83.7352L25.9331 83.8448ZM25.2131 64.1528V61.1528H22.1014L22.2151 64.2624L25.2131 64.1528ZM28.1651 64.1528L31.1628 64.0364L31.0509 61.1528H28.1651V64.1528ZM28.8851 82.6928L25.8873 82.8092L25.8876 82.8152L28.8851 82.6928ZM29.2091 85.4288L26.3051 86.1817L26.322 86.2468L26.3418 86.3111L29.2091 85.4288ZM30.4331 86.7248L29.3562 89.5248L29.3736 89.5316L29.3912 89.5381L30.4331 86.7248ZM34.5371 87.5168L32.1371 89.3168L32.222 89.4301L32.3173 89.5348L34.5371 87.5168ZM34.3931 89.5688L36.4344 91.7672L36.4751 91.7294L36.5144 91.6901L34.3931 89.5688ZM33.0971 87.0368C31.3306 87.0368 30.3198 86.8276 29.8275 86.6215L27.5107 92.1561C29.0824 92.8141 31.0235 93.0368 33.0971 93.0368V87.0368ZM29.8509 86.6314C29.4727 86.4693 29.3947 86.3243 29.346 86.2086L23.8162 88.537C24.5355 90.2453 25.8495 91.4443 27.4873 92.1462L29.8509 86.6314ZM29.346 86.2086C29.1532 85.7507 28.9723 84.9711 28.9314 83.7449L22.9348 83.9448C22.9899 85.5985 23.241 87.1709 23.8162 88.537L29.346 86.2086ZM28.9311 83.7352L28.2111 64.0432L22.2151 64.2624L22.9351 83.9544L28.9311 83.7352ZM25.2131 67.1528H28.1651V61.1528H25.2131V67.1528ZM25.1674 64.2692L25.8874 82.8092L31.8828 82.5764L31.1628 64.0364L25.1674 64.2692ZM25.8876 82.8152C25.9388 84.0698 26.0581 85.2288 26.3051 86.1817L32.1131 84.6759C32.0241 84.3328 31.9274 83.6678 31.8826 82.5705L25.8876 82.8152ZM26.3418 86.3111C26.8121 87.8396 27.8968 88.9635 29.3562 89.5248L31.51 83.9248C31.5641 83.9456 31.6995 84.012 31.8401 84.1609C31.9824 84.3116 32.0506 84.4626 32.0764 84.5466L26.3418 86.3111ZM29.3912 89.5381C30.56 89.971 32.0118 90.0848 33.4571 90.0848V84.0848C32.1664 84.0848 31.6022 83.9587 31.475 83.9116L29.3912 89.5381ZM33.4571 90.0848C33.4364 90.0848 33.254 90.0835 32.9909 89.9782C32.7009 89.8622 32.3847 89.6469 32.1371 89.3168L36.9371 85.7168C35.9502 84.401 34.5031 84.0848 33.4571 84.0848V90.0848ZM32.3173 89.5348C32.1874 89.3919 32.0717 89.2099 31.9938 88.9998C31.9173 88.7932 31.8971 88.613 31.8971 88.4888H37.8971C37.8971 87.4205 37.5391 86.3592 36.7569 85.4988L32.3173 89.5348ZM31.8971 88.4888C31.8971 88.2271 31.9577 87.9813 32.0525 87.7782C32.1422 87.586 32.2397 87.4795 32.2718 87.4475L36.5144 91.6901C37.2715 90.9331 37.8971 89.8485 37.8971 88.4888H31.8971ZM32.3517 87.3704C32.4797 87.2516 32.6356 87.1569 32.7982 87.0981C32.9538 87.0419 33.0649 87.0368 33.0971 87.0368V93.0368C34.2593 93.0368 35.4596 92.6724 36.4344 91.7672L32.3517 87.3704ZM33.0977 90.0368L30.1197 89.6736L29.7096 93.0368H33.0977V90.0368ZM33.4577 87.0848V84.0848H30.8013L30.4797 86.7216L33.4577 87.0848ZM35.8337 86.8328L36.6737 89.7128L36.7283 89.6969L36.7823 89.6789L35.8337 86.8328ZM37.1297 85.7888L34.5469 84.2626L34.5358 84.2814L34.5249 84.3004L37.1297 85.7888ZM37.9217 83.5208L34.9914 82.8776L34.9914 82.8776L37.9217 83.5208ZM38.7137 79.6688L39.2802 76.7228L36.3474 76.1588L35.7702 79.089L38.7137 79.6688ZM41.5217 80.2088L44.4502 80.8596L45.1199 77.8458L42.0882 77.2628L41.5217 80.2088ZM41.1977 81.6488L38.2723 80.9839L38.2723 80.9839L41.1977 81.6488ZM40.8737 83.2328L37.922 82.6962L37.9119 82.7522L37.9038 82.8085L40.8737 83.2328ZM41.0897 85.8608L43.7044 84.39L43.7044 84.39L41.0897 85.8608ZM42.4937 86.7608L41.6316 89.6343L41.6316 89.6343L42.4937 86.7608ZM46.8857 87.5168L44.4857 89.3168L44.5706 89.4301L44.6658 89.5348L46.8857 87.5168ZM46.7417 89.5688L48.783 91.7672L48.8237 91.7294L48.863 91.6901L46.7417 89.5688ZM41.7737 89.6408L40.8481 92.4945L40.8833 92.5059L40.9187 92.5164L41.7737 89.6408ZM39.8297 88.3808L37.3816 90.1149L37.3991 90.1396L37.4171 90.164L39.8297 88.3808ZM39.0017 86.2928L39.2012 83.2995L35.3821 83.0448L36.0473 86.8142L39.0017 86.2928ZM40.0817 86.3648L42.7649 87.7065L44.7824 83.6715L40.2812 83.3715L40.0817 86.3648ZM38.8217 88.2368L36.6467 86.1706L36.6188 86.1999L36.5918 86.2299L38.8217 88.2368ZM37.3817 89.3528L36.04 86.6695L37.3817 89.3528ZM35.5457 89.8928L35.9556 92.8647L35.5457 89.8928ZM37.4177 75.4568L35.2245 77.5038L35.2951 77.5794L35.3707 77.65L37.4177 75.4568ZM37.4177 72.9368L35.2963 70.8155L35.2598 70.8521L35.2245 70.8899L37.4177 72.9368ZM39.9377 72.9368L37.7445 74.9838L37.7798 75.0216L37.8163 75.0581L39.9377 72.9368ZM39.9377 75.4568L42.059 77.5781L42.059 77.5781L39.9377 75.4568ZM36.0756 90.4L36.4356 87.448L30.4797 86.7216L30.1197 89.6736L36.0756 90.4ZM33.4577 90.0848C34.585 90.0848 35.7021 89.9962 36.6737 89.7128L34.9937 83.9528C34.8132 84.0054 34.3463 84.0848 33.4577 84.0848V90.0848ZM36.7823 89.6789C38.0233 89.2652 39.0622 88.4536 39.7344 87.2772L34.5249 84.3004C34.558 84.2425 34.6185 84.1634 34.7077 84.0915C34.7951 84.0211 34.866 83.9931 34.885 83.9868L36.7823 89.6789ZM39.7124 87.315C40.2568 86.3937 40.6056 85.2862 40.8519 84.164L34.9914 82.8776C34.8058 83.7234 34.6265 84.1279 34.5469 84.2626L39.7124 87.315ZM40.8519 84.164C41.0744 83.1503 41.3431 81.8428 41.6571 80.2486L35.7702 79.089C35.4602 80.6628 35.2009 81.9233 34.9914 82.8776L40.8519 84.164ZM38.1471 82.6148L40.9551 83.1548L42.0882 77.2628L39.2802 76.7228L38.1471 82.6148ZM38.5931 79.558C38.4983 79.9844 38.3914 80.4596 38.2723 80.9839L44.1231 82.3137C44.2439 81.782 44.353 81.2972 44.4502 80.8596L38.5931 79.558ZM38.2723 80.9839C38.1427 81.5541 38.0259 82.1249 37.922 82.6962L43.8253 83.7695C43.9134 83.2848 44.0126 82.7995 44.1231 82.3137L38.2723 80.9839ZM37.9038 82.8085C37.8178 83.4108 37.7657 84.0017 37.7657 84.5648H43.7657C43.7657 84.3599 43.7855 84.0628 43.8435 83.6571L37.9038 82.8085ZM37.7657 84.5648C37.7657 85.5127 37.9841 86.459 38.4749 87.3316L43.7044 84.39C43.7291 84.434 43.7468 84.4802 43.7571 84.5212C43.767 84.5609 43.7657 84.5785 43.7657 84.5648H37.7657ZM38.4749 87.3316C39.2642 88.7348 40.6567 89.3418 41.6316 89.6343L43.3557 83.8873C43.1757 83.8333 43.1547 83.8053 43.2217 83.8482C43.295 83.8952 43.5169 84.0567 43.7044 84.39L38.4749 87.3316ZM41.6316 89.6343C42.7872 89.981 44.2525 90.0848 45.8057 90.0848V84.0848C44.3828 84.0848 43.6401 83.9726 43.3557 83.8873L41.6316 89.6343ZM45.8057 90.0848C45.7849 90.0848 45.6026 90.0835 45.3395 89.9782C45.0495 89.8622 44.7332 89.6469 44.4857 89.3168L49.2857 85.7168C48.2988 84.401 46.8516 84.0848 45.8057 84.0848V90.0848ZM44.6658 89.5348C44.5359 89.3919 44.4202 89.2099 44.3424 88.9998C44.2659 88.7932 44.2457 88.613 44.2457 88.4888H50.2457C50.2457 87.4205 49.8877 86.3592 49.1055 85.4988L44.6658 89.5348ZM44.2457 88.4888C44.2457 88.2271 44.3063 87.9813 44.4011 87.7782C44.4908 87.586 44.5883 87.4795 44.6203 87.4475L48.863 91.6901C49.62 90.9331 50.2457 89.8485 50.2457 88.4888H44.2457ZM44.7003 87.3704C44.8283 87.2516 44.9842 87.1569 45.1467 87.0981C45.3024 87.0419 45.4134 87.0368 45.4457 87.0368V93.0368C46.6079 93.0368 47.8081 92.6724 48.783 91.7672L44.7003 87.3704ZM45.4457 87.0368C44.0063 87.0368 43.1138 86.9095 42.6286 86.7652L40.9187 92.5164C42.2095 92.9002 43.765 93.0368 45.4457 93.0368V87.0368ZM42.6992 86.7871C42.1962 86.624 42.1656 86.494 42.2422 86.5976L37.4171 90.164C38.3097 91.3716 39.5751 92.0816 40.8481 92.4945L42.6992 86.7871ZM42.2777 86.6468C42.1669 86.4903 42.0362 86.2262 41.956 85.7715L36.0473 86.8142C36.2551 87.9915 36.6764 89.1194 37.3816 90.1149L42.2777 86.6468ZM38.8021 89.2862L39.8821 89.3582L40.2812 83.3715L39.2012 83.2995L38.8021 89.2862ZM37.3984 85.0232C37.1099 85.6001 36.8481 85.9585 36.6467 86.1706L40.9967 90.3031C41.7072 89.5551 42.2854 88.6656 42.7649 87.7065L37.3984 85.0232ZM36.5918 86.2299C36.3873 86.4571 36.202 86.5885 36.04 86.6695L38.7233 92.0361C39.6173 91.5891 40.392 90.9765 41.0515 90.2437L36.5918 86.2299ZM36.04 86.6695C35.8544 86.7623 35.5674 86.8614 35.1357 86.9209L35.9556 92.8647C36.9159 92.7322 37.8529 92.4713 38.7233 92.0361L36.04 86.6695ZM35.1357 86.9209C34.6116 86.9932 33.9385 87.0368 33.0977 87.0368V93.0368C34.1288 93.0368 35.0877 92.9844 35.9556 92.8647L35.1357 86.9209ZM38.7137 72.9608C38.801 72.9608 38.9392 72.9766 39.099 73.0388C39.26 73.1014 39.3835 73.188 39.4646 73.2636L35.3707 77.65C36.3005 78.5178 37.4696 78.9608 38.7137 78.9608V72.9608ZM39.6108 73.4099C39.6738 73.4773 39.7594 73.5933 39.8251 73.7576C39.8913 73.9233 39.9137 74.0788 39.9137 74.1968H33.9137C33.9137 75.4582 34.3849 76.6042 35.2245 77.5038L39.6108 73.4099ZM39.9137 74.1968C39.9137 74.3149 39.8913 74.4703 39.8251 74.636C39.7594 74.8003 39.6738 74.9163 39.6108 74.9838L35.2245 70.8899C34.3849 71.7894 33.9137 72.9354 33.9137 74.1968H39.9137ZM39.539 75.0581C39.4664 75.1307 39.3419 75.2275 39.1655 75.301C38.9885 75.3748 38.827 75.3968 38.7137 75.3968V69.3968C37.405 69.3968 36.2125 69.8993 35.2963 70.8155L39.539 75.0581ZM38.7137 75.3968C38.5689 75.3968 38.3747 75.3674 38.1687 75.2766C37.9645 75.1865 37.8244 75.0693 37.7445 74.9838L42.1308 70.8899C41.2441 69.9398 40.0493 69.3968 38.7137 69.3968V75.3968ZM37.8163 75.0581C37.7572 74.999 37.6618 74.8823 37.5852 74.7036C37.5072 74.5214 37.4777 74.3422 37.4777 74.1968H43.4777C43.4777 72.8691 42.9437 71.7002 42.059 70.8155L37.8163 75.0581ZM37.4777 74.1968C37.4777 74.0514 37.5072 73.8722 37.5852 73.6901C37.6618 73.5114 37.7572 73.3946 37.8163 73.3355L42.059 77.5781C42.9437 76.6934 43.4777 75.5245 43.4777 74.1968H37.4777ZM37.8163 73.3355C37.9066 73.2452 38.0477 73.1389 38.2374 73.0608C38.4265 72.9829 38.5965 72.9608 38.7137 72.9608V78.9608C39.9802 78.9608 41.154 78.4831 42.059 77.5781L37.8163 73.3355ZM56.2735 89.7488L55.4671 92.6384L55.4985 92.6472L55.53 92.6552L56.2735 89.7488ZM53.2855 88.5608L51.8632 91.2022L51.8771 91.2097L51.891 91.217L53.2855 88.5608ZM50.7295 86.7248L48.6082 88.8461L48.6424 88.8803L48.6777 88.9134L50.7295 86.7248ZM48.9295 84.2408L46.2183 85.5251L46.2319 85.5539L46.2462 85.5825L48.9295 84.2408ZM48.9295 78.3008L46.2462 76.9592L46.2319 76.9877L46.2183 77.0166L48.9295 78.3008ZM50.8375 76.1048L52.5184 78.5897L52.5263 78.5844L52.5341 78.579L50.8375 76.1048ZM56.5255 76.1408L54.6786 78.5049L54.7019 78.5231L54.7255 78.5408L56.5255 76.1408ZM58.2895 78.4088L55.5394 79.6076L55.5582 79.6506L55.5783 79.6931L58.2895 78.4088ZM57.7495 85.0328L55.3119 83.2841L55.3046 83.2942L57.7495 85.0328ZM54.6175 87.7688L56.0905 90.3823L56.0905 90.3823L54.6175 87.7688ZM50.2615 89.4608L49.5547 86.5453L50.2615 89.4608ZM45.4375 90.0368L42.4596 89.6736L42.0494 93.0368H45.4375V90.0368ZM45.7975 87.0848V84.0848H43.1411L42.8196 86.7216L45.7975 87.0848ZM49.2535 86.8328L49.7467 89.792L49.7745 89.7874L49.8022 89.7822L49.2535 86.8328ZM51.9175 86.0768L50.8243 83.2831L50.7906 83.2963L50.7573 83.3102L51.9175 86.0768ZM54.5095 84.5288L56.5888 86.6913L56.5904 86.6898L54.5095 84.5288ZM55.8775 82.6208L58.6558 83.7527L58.6558 83.7527L55.8775 82.6208ZM55.9495 79.4168L53.1641 80.531L53.1985 80.6172L53.2383 80.7011L55.9495 79.4168ZM55.0855 78.2648L53.1207 80.5319L53.2008 80.6013L53.2855 80.6648L55.0855 78.2648ZM52.3135 78.2648L54.0436 80.7157L54.0568 80.7064L54.07 80.6968L52.3135 78.2648ZM51.3415 79.4168L48.6582 78.0752L48.6582 78.0752L51.3415 79.4168ZM51.7375 83.6288L49.2065 85.2394L49.2352 85.2844L49.2654 85.3284L51.7375 83.6288ZM53.7535 85.6088L52.0726 88.0937L52.0892 88.1049L52.106 88.1159L53.7535 85.6088ZM56.4175 86.8688L55.5352 89.7361L55.5453 89.7393L55.5555 89.7423L56.4175 86.8688ZM60.9535 86.9048L62.6531 89.3769L62.704 89.3419L62.7535 89.3048L60.9535 86.9048ZM61.4215 84.8528L58.4517 85.2771L58.4697 85.4032L58.4983 85.5274L61.4215 84.8528ZM60.8455 83.4848L58.2076 84.9137L58.2302 84.9554L58.2542 84.9964L60.8455 83.4848ZM59.2255 81.3608L56.9833 83.3539L56.9972 83.3696L57.0114 83.3851L59.2255 81.3608ZM55.9855 78.3008L54.0267 80.573L54.038 80.5828L54.0494 80.5925L55.9855 78.3008ZM50.5855 74.1248L48.1948 72.3125L46.3341 74.767L48.8368 76.5624L50.5855 74.1248ZM52.2775 71.8928L54.045 69.4688L51.6657 67.7339L49.8868 70.0805L52.2775 71.8928ZM57.9655 76.3568L55.9952 78.6191L56.0145 78.6359L56.0342 78.6525L57.9655 76.3568ZM61.5295 79.7048L59.2996 81.7117L59.326 81.741L59.3531 81.7696L61.5295 79.7048ZM63.4735 82.1888L60.8634 83.6678L60.893 83.72L60.9246 83.7709L63.4735 82.1888ZM64.3015 84.0608L61.37 84.6981L61.373 84.7119L61.3761 84.7257L64.3015 84.0608ZM63.9415 87.8048L61.2768 86.4265L61.2578 86.4633L61.2398 86.5006L63.9415 87.8048ZM62.2855 89.4968L60.8147 86.8821L60.7968 86.8921L60.7791 86.9024L62.2855 89.4968ZM59.2975 87.1448C58.584 87.1448 57.8259 87.0493 57.017 86.8424L55.53 92.6552C56.7851 92.9763 58.043 93.1448 59.2975 93.1448V87.1448ZM57.0799 86.8592C56.254 86.6288 55.455 86.3115 54.68 85.9046L51.891 91.217C53.036 91.8181 54.229 92.2929 55.4671 92.6384L57.0799 86.8592ZM54.7078 85.9194C53.9981 85.5372 53.3581 85.0769 52.7813 84.5362L48.6777 88.9134C49.6369 89.8127 50.7009 90.5764 51.8632 91.2022L54.7078 85.9194ZM52.8508 84.6035C52.3275 84.0801 51.92 83.5136 51.6128 82.8992L46.2462 85.5825C46.851 86.792 47.6435 87.8815 48.6082 88.8461L52.8508 84.6035ZM51.6407 82.9566C51.4077 82.4647 51.2815 81.9218 51.2815 81.2888H45.2815C45.2815 82.7678 45.5873 84.193 46.2183 85.5251L51.6407 82.9566ZM51.2815 81.2888C51.2815 80.6212 51.412 80.0679 51.6407 79.5851L46.2183 77.0166C45.583 78.3578 45.2815 79.7964 45.2815 81.2888H51.2815ZM51.6128 79.6425C51.8468 79.1745 52.1445 78.8426 52.5184 78.5897L49.1566 73.62C47.8985 74.471 46.9242 75.6032 46.2462 76.9592L51.6128 79.6425ZM52.5341 78.579C52.8324 78.3745 53.2018 78.2408 53.7535 78.2408V72.2408C52.0972 72.2408 50.5226 72.6832 49.1409 73.6306L52.5341 78.579ZM53.7535 78.2408C54.2408 78.2408 54.4954 78.3618 54.6786 78.5049L58.3724 73.7767C57.0196 72.7198 55.4262 72.2408 53.7535 72.2408V78.2408ZM54.7255 78.5408C55.0517 78.7855 55.3252 79.1161 55.5394 79.6076L61.0396 77.2101C60.4378 75.8295 59.5353 74.6482 58.3255 73.7408L54.7255 78.5408ZM55.5783 79.6931C55.8204 80.2041 55.9375 80.7255 55.9375 81.2888H61.9375C61.9375 79.8361 61.6226 78.4375 61.0007 77.1246L55.5783 79.6931ZM55.9375 81.2888C55.9375 82.0699 55.7287 82.7031 55.3119 83.2841L60.1871 86.7815C61.3543 85.1546 61.9375 83.2917 61.9375 81.2888H55.9375ZM55.3046 83.2942C54.8266 83.9665 54.1352 84.5969 53.1445 85.1554L56.0905 90.3823C57.7398 89.4527 59.1364 88.2591 60.1944 86.7714L55.3046 83.2942ZM53.1445 85.1554C52.0822 85.7541 50.8908 86.2214 49.5547 86.5453L50.9683 92.3764C52.8002 91.9323 54.5128 91.2715 56.0905 90.3823L53.1445 85.1554ZM49.5547 86.5453C48.2024 86.8731 46.8317 87.0368 45.4375 87.0368V93.0368C47.3073 93.0368 49.1526 92.8165 50.9683 92.3764L49.5547 86.5453ZM48.4154 90.4L48.7754 87.448L42.8196 86.7216L42.4596 89.6736L48.4154 90.4ZM45.7975 90.0848C47.2171 90.0848 48.5392 89.9932 49.7467 89.792L48.7603 83.8736C47.9518 84.0084 46.9699 84.0848 45.7975 84.0848V90.0848ZM49.8022 89.7822C50.985 89.5622 52.0884 89.2582 53.0777 88.8434L50.7573 83.3102C50.2586 83.5194 49.586 83.7195 48.7048 83.8834L49.8022 89.7822ZM53.0107 88.8705C54.3547 88.3446 55.5967 87.6453 56.5888 86.6913L52.4302 82.3663C52.1743 82.6123 51.6883 82.945 50.8243 83.2831L53.0107 88.8705ZM56.5904 86.6898C57.4574 85.8549 58.1955 84.8826 58.6558 83.7527L53.0992 81.4889C53.0315 81.655 52.8576 81.9547 52.4286 82.3679L56.5904 86.6898ZM58.6558 83.7527C59.0211 82.8559 59.2735 81.8767 59.2735 80.8568H53.2735C53.2735 80.8929 53.2619 81.0897 53.0992 81.4889L58.6558 83.7527ZM59.2735 80.8568C59.2735 79.9081 59.0666 78.9895 58.6607 78.1326L53.2383 80.7011C53.2644 80.7561 53.2735 80.7975 53.2735 80.8568H59.2735ZM58.7349 78.3026C58.3549 77.3526 57.7436 76.5084 56.8855 75.8648L53.2855 80.6648C53.2501 80.6382 53.2161 80.6042 53.1895 80.5688C53.1638 80.5346 53.1584 80.5168 53.1641 80.531L58.7349 78.3026ZM57.0503 75.9977C56.0846 75.1608 54.9193 74.7968 53.7535 74.7968V80.7968C53.7197 80.7968 53.622 80.7913 53.488 80.7442C53.3496 80.6956 53.2223 80.6199 53.1207 80.5319L57.0503 75.9977ZM53.7535 74.7968C52.5886 74.7968 51.4952 75.1552 50.557 75.8328L54.07 80.6968C54.0473 80.7132 53.9975 80.7433 53.9248 80.7669C53.8517 80.7907 53.7897 80.7968 53.7535 80.7968V74.7968ZM50.5834 75.8139C49.7412 76.4085 49.1026 77.1864 48.6582 78.0752L54.0248 80.7585C54.0355 80.737 54.044 80.7229 54.0494 80.7147C54.0521 80.7105 54.0541 80.7077 54.0554 80.706C54.0567 80.7042 54.0574 80.7034 54.0574 80.7034C54.0574 80.7034 54.0569 80.704 54.0559 80.705C54.0549 80.7061 54.0536 80.7073 54.0521 80.7088C54.0487 80.7118 54.0456 80.7142 54.0436 80.7157L50.5834 75.8139ZM48.6582 78.0752C48.2135 78.9647 47.9815 79.9272 47.9815 80.9288H53.9815C53.9815 80.8744 53.9895 80.829 54.0248 80.7584L48.6582 78.0752ZM47.9815 80.9288C47.9815 82.4635 48.3734 83.9303 49.2065 85.2394L54.2685 82.0182C54.0936 81.7433 53.9815 81.4102 53.9815 80.9288H47.9815ZM49.2654 85.3284C50.0177 86.4226 50.964 87.3438 52.0726 88.0937L55.4344 83.124C54.911 82.7699 54.5133 82.371 54.2096 81.9292L49.2654 85.3284ZM52.106 88.1159C53.1765 88.8194 54.3213 89.3626 55.5352 89.7361L57.2998 84.0015C56.6417 83.799 56.0105 83.5022 55.401 83.1017L52.106 88.1159ZM55.5555 89.7423C56.7515 90.1011 57.9552 90.3008 59.1535 90.3008V84.3008C58.6238 84.3008 58.0035 84.2125 57.2795 83.9953L55.5555 89.7423ZM59.1535 90.3008C60.1743 90.3008 61.5171 90.1579 62.6531 89.3769L59.2539 84.4327C59.362 84.3584 59.4514 84.3165 59.505 84.295C59.558 84.2736 59.5835 84.2691 59.5709 84.2719C59.5587 84.2746 59.5191 84.2822 59.4465 84.289C59.3744 84.2957 59.2778 84.3008 59.1535 84.3008V90.3008ZM62.7535 89.3048C64.1388 88.2658 64.5295 86.7363 64.5295 85.5008H58.5295C58.5295 85.5394 58.5225 85.4124 58.61 85.1991C58.7079 84.9605 58.8888 84.7033 59.1535 84.5048L62.7535 89.3048ZM64.5295 85.5008C64.5295 84.9929 64.4103 84.4624 64.3447 84.1782L58.4983 85.5274C58.5117 85.5854 58.5219 85.6326 58.5296 85.67C58.5374 85.7079 58.5415 85.7312 58.5433 85.742C58.5442 85.7471 58.5441 85.7472 58.5435 85.7431C58.543 85.7391 58.5416 85.7285 58.5398 85.7124C58.5381 85.6966 58.5357 85.6714 58.5337 85.6384C58.5316 85.6061 58.5295 85.5592 58.5295 85.5008H64.5295ZM64.3913 84.4285C64.2579 83.4945 63.8164 82.6239 63.4368 81.9732L58.2542 84.9964C58.3777 85.2082 58.4447 85.3473 58.4766 85.423C58.4917 85.4588 58.4928 85.4662 58.4874 85.4483C58.4824 85.4318 58.4653 85.3724 58.4517 85.2771L64.3913 84.4285ZM63.4834 82.056C63 81.1636 62.2706 80.2455 61.4396 79.3365L57.0114 83.3851C57.7164 84.1562 58.067 84.654 58.2076 84.9137L63.4834 82.056ZM61.4677 79.3677C60.5671 78.3545 59.3681 77.2313 57.9216 76.0092L54.0494 80.5925C55.3869 81.7223 56.3479 82.6391 56.9833 83.3539L61.4677 79.3677ZM57.9443 76.0286C56.4612 74.75 54.584 73.3011 52.3342 71.6872L48.8368 76.5624C51.003 78.1165 52.7258 79.4516 54.0267 80.573L57.9443 76.0286ZM52.9762 75.9371L54.6682 73.7051L49.8868 70.0805L48.1948 72.3125L52.9762 75.9371ZM50.51 74.3168C52.7719 75.9661 54.594 77.3987 55.9952 78.6191L59.9358 74.0946C58.361 72.7229 56.3911 71.1795 54.045 69.4688L50.51 74.3168ZM56.0342 78.6525C57.4894 79.8767 58.5633 80.8935 59.2996 81.7117L63.7594 77.6979C62.7677 76.5961 61.4656 75.3809 59.8968 74.0611L56.0342 78.6525ZM59.3531 81.7696C60.1555 82.6154 60.6229 83.2435 60.8634 83.6678L66.0836 80.7098C65.5081 79.6942 64.6795 78.6663 63.7059 77.64L59.3531 81.7696ZM60.9246 83.7709C61.2501 84.2953 61.3475 84.5946 61.37 84.6981L67.233 83.4235C67.0155 82.423 66.5609 81.4743 66.0224 80.6067L60.9246 83.7709ZM61.3761 84.7257C61.4527 85.0628 61.4815 85.3429 61.4815 85.5728H67.4815C67.4815 84.8427 67.3903 84.1148 67.2269 83.3959L61.3761 84.7257ZM61.4815 85.5728C61.4815 85.8905 61.414 86.1613 61.2768 86.4265L66.6062 89.1831C67.189 88.0563 67.4815 86.8391 67.4815 85.5728H61.4815ZM61.2398 86.5006C61.2068 86.5691 61.1257 86.7072 60.8147 86.8821L63.7563 92.1115C64.9813 91.4225 66.0042 90.4325 66.6432 89.1091L61.2398 86.5006ZM60.7791 86.9024C60.6536 86.9753 60.2401 87.1448 59.2975 87.1448V93.1448C60.8509 93.1448 62.4294 92.8823 63.7919 92.0912L60.7791 86.9024ZM90.2744 89.4968L89.1837 92.2915L89.2243 92.3074L89.2654 92.322L90.2744 89.4968ZM87.8984 87.5888L85.3619 89.1908L85.3867 89.23L85.4126 89.2684L87.8984 87.5888ZM86.9264 83.8088L89.9234 83.6746L89.9232 83.671L86.9264 83.8088ZM86.3504 71.2808V68.2808H83.2093L83.3535 71.4186L86.3504 71.2808ZM89.2664 71.2808L92.2629 71.1355L92.1244 68.2808H89.2664V71.2808ZM89.8424 83.1608L86.8459 83.3061L86.847 83.329L86.8485 83.3519L89.8424 83.1608ZM90.4544 85.7168L87.863 87.2284L87.8772 87.2527L87.8918 87.2767L90.4544 85.7168ZM91.8584 86.8328L90.944 89.6901L91.0108 89.7114L91.0785 89.7297L91.8584 86.8328ZM95.1704 87.5168L92.7704 89.3168L92.8553 89.4301L92.9506 89.5348L95.1704 87.5168ZM95.0264 89.5688L97.0677 91.7672L97.1084 91.7294L97.1477 91.6901L95.0264 89.5688ZM88.2944 86.0768L89.1978 88.9376L91.5312 88.2007L91.2783 85.7668L88.2944 86.0768ZM80.7704 86.1488L81.7956 83.3294L81.7956 83.3294L80.7704 86.1488ZM78.2504 84.4928L75.9518 86.4206L75.9674 86.4393L75.9833 86.4576L78.2504 84.4928ZM78.0704 78.9848L75.4918 77.4516L75.4763 77.4776L75.4613 77.504L78.0704 78.9848ZM80.1944 76.6088L78.3744 74.224L78.359 74.2357L78.3437 74.2476L80.1944 76.6088ZM83.3264 74.8808L84.411 77.6779L84.4258 77.6721L84.4405 77.6662L83.3264 74.8808ZM87.1424 73.9088L90.1016 73.4156L89.6281 70.5748L86.7703 70.932L87.1424 73.9088ZM87.6464 76.9328L87.7663 79.9304L91.1647 79.7945L90.6056 76.4396L87.6464 76.9328ZM84.4424 77.4368L85.2766 80.3185L85.3007 80.3115L85.3246 80.3041L84.4424 77.4368ZM82.1024 78.4808L80.4383 75.9847L80.4164 75.9993L80.3947 76.0142L82.1024 78.4808ZM80.6624 79.8848L78.1662 78.2207L78.1662 78.2207L80.6624 79.8848ZM80.7344 82.6568L78.7589 84.9145L78.7589 84.9145L80.7344 82.6568ZM82.2104 83.4488L81.296 86.3061L81.3485 86.3229L81.4015 86.3377L82.2104 83.4488ZM84.1904 83.7728L83.9908 86.7662L84.0406 86.7695L84.0904 86.7711L84.1904 83.7728ZM86.2784 83.7008L86.598 86.6837L86.6504 86.6781L86.7026 86.6707L86.2784 83.7008ZM88.0064 83.3048L90.9903 82.9948L90.5981 79.2193L87.0153 80.4732L88.0064 83.3048ZM93.7304 87.0368C92.708 87.0368 91.9074 86.8945 91.2834 86.6716L89.2654 92.322C90.6573 92.8192 92.1607 93.0368 93.7304 93.0368V87.0368ZM91.365 86.7021C90.9573 86.543 90.6484 86.3004 90.3841 85.9092L85.4126 89.2684C86.3483 90.6532 87.6235 91.6827 89.1837 92.2915L91.365 86.7021ZM90.4348 85.9868C90.2415 85.6807 89.9827 84.9993 89.9234 83.6746L83.9294 83.943C84.0141 85.8343 84.4032 87.6729 85.3619 89.1908L90.4348 85.9868ZM89.9232 83.671L89.3472 71.143L83.3535 71.4186L83.9295 83.9466L89.9232 83.671ZM86.3504 74.2808H89.2664V68.2808H86.3504V74.2808ZM86.2699 71.4261L86.8459 83.3061L92.8389 83.0155L92.2629 71.1355L86.2699 71.4261ZM86.8485 83.3519C86.9322 84.6636 87.1822 86.0613 87.863 87.2284L93.0457 84.2052C93.0636 84.2359 93.0207 84.1718 92.9669 83.9472C92.9143 83.7277 92.8643 83.409 92.8363 82.9697L86.8485 83.3519ZM87.8918 87.2767C88.5926 88.4279 89.6372 89.2719 90.944 89.6901L92.7727 83.9755C92.7995 83.9841 92.859 84.0096 92.9241 84.0613C92.954 84.0851 92.9775 84.1084 92.9943 84.1278C93.0109 84.1469 93.0177 84.1582 93.017 84.157L87.8918 87.2767ZM91.0785 89.7297C92.0257 89.9847 93.0455 90.0848 94.0904 90.0848V84.0848C93.4073 84.0848 92.939 84.0169 92.6383 83.936L91.0785 89.7297ZM94.0904 90.0848C94.0696 90.0848 93.8873 90.0835 93.6242 89.9782C93.3342 89.8622 93.0179 89.6469 92.7704 89.3168L97.5704 85.7168C96.5835 84.401 95.1364 84.0848 94.0904 84.0848V90.0848ZM92.9506 89.5348C92.8207 89.3919 92.705 89.2099 92.6271 88.9998C92.5506 88.7932 92.5304 88.613 92.5304 88.4888H98.5304C98.5304 87.4205 98.1724 86.3592 97.3902 85.4988L92.9506 89.5348ZM92.5304 88.4888C92.5304 88.2271 92.591 87.9813 92.6858 87.7782C92.7755 87.586 92.873 87.4795 92.9051 87.4475L97.1477 91.6901C97.9047 90.9331 98.5304 89.8485 98.5304 88.4888H92.5304ZM92.985 87.3704C93.113 87.2516 93.2689 87.1569 93.4314 87.0981C93.5871 87.0419 93.6981 87.0368 93.7304 87.0368V93.0368C94.8926 93.0368 96.0928 92.6724 97.0677 91.7672L92.985 87.3704ZM87.391 83.2161C86.2843 83.5656 85.257 83.7248 84.2984 83.7248V89.7248C85.9317 89.7248 87.5685 89.4521 89.1978 88.9376L87.391 83.2161ZM84.2984 83.7248C83.2993 83.7248 82.4768 83.5771 81.7956 83.3294L79.7451 88.9682C81.1759 89.4885 82.7055 89.7248 84.2984 89.7248V83.7248ZM81.7956 83.3294C81.1332 83.0886 80.7516 82.7982 80.5174 82.528L75.9833 86.4576C76.9972 87.6275 78.2956 88.4411 79.7451 88.9682L81.7956 83.3294ZM80.5489 82.565C80.4079 82.3968 80.3144 82.2036 80.3144 81.8288H74.3144C74.3144 83.518 74.8449 85.1009 75.9518 86.4206L80.5489 82.565ZM80.3144 81.8288C80.3144 81.3469 80.4282 80.9083 80.6794 80.4656L75.4613 77.504C74.7046 78.8373 74.3144 80.2947 74.3144 81.8288H80.3144ZM80.649 80.518C80.9708 79.9768 81.4218 79.4584 82.045 78.97L78.3437 74.2476C77.1909 75.1512 76.2259 76.2169 75.4918 77.4516L80.649 80.518ZM82.0144 78.9937C82.6808 78.4851 83.4724 78.0418 84.411 77.6779L82.2418 72.0837C80.8284 72.6318 79.532 73.3405 78.3744 74.224L82.0144 78.9937ZM84.4405 77.6662C85.3912 77.286 86.4128 77.0234 87.5145 76.8856L86.7703 70.932C85.184 71.1303 83.6615 71.5157 82.2122 72.0954L84.4405 77.6662ZM84.1832 74.402L84.6872 77.426L90.6056 76.4396L90.1016 73.4156L84.1832 74.402ZM87.5265 73.9352C86.1238 73.9913 84.7919 74.1905 83.5601 74.5695L85.3246 80.3041C85.9648 80.1072 86.769 79.9703 87.7663 79.9304L87.5265 73.9352ZM83.6082 74.5551C82.4636 74.8864 81.3903 75.3499 80.4383 75.9847L83.7665 80.977C84.1104 80.7477 84.5971 80.5152 85.2766 80.3185L83.6082 74.5551ZM80.3947 76.0142C79.5354 76.6092 78.7578 77.3334 78.1662 78.2207L83.1585 81.5489C83.239 81.4283 83.4213 81.2165 83.81 80.9474L80.3947 76.0142ZM78.1662 78.2207C77.5876 79.0886 77.1584 80.1506 77.1584 81.3608H83.1584C83.1584 81.4769 83.1371 81.5611 83.1234 81.6012C83.1112 81.6371 83.1113 81.6197 83.1585 81.5489L78.1662 78.2207ZM77.1584 81.3608C77.1584 82.7195 77.6984 83.9866 78.7589 84.9145L82.7099 80.3991C82.8192 80.4947 82.9492 80.6496 83.0438 80.8624C83.1372 81.0725 83.1584 81.2543 83.1584 81.3608H77.1584ZM78.7589 84.9145C79.5153 85.5764 80.3942 86.0175 81.296 86.3061L83.1247 80.5915C82.8265 80.4961 82.7215 80.4092 82.7099 80.3991L78.7589 84.9145ZM81.4015 86.3377C82.2288 86.5693 83.0962 86.7065 83.9908 86.7662L84.3899 80.7795C83.8445 80.7431 83.392 80.6643 83.0193 80.5599L81.4015 86.3377ZM84.0904 86.7711C84.9414 86.7995 85.7779 86.7716 86.598 86.6837L85.9588 80.7179C85.4349 80.774 84.8794 80.7941 84.2903 80.7745L84.0904 86.7711ZM86.7026 86.6707C87.5079 86.5556 88.2841 86.386 88.9974 86.1364L87.0153 80.4732C86.7686 80.5596 86.3929 80.654 85.8541 80.731L86.7026 86.6707ZM85.0224 83.6148L85.3104 86.3868L91.2783 85.7668L90.9903 82.9948L85.0224 83.6148ZM113.902 89.8568L113.395 92.8137L113.437 92.8207L113.478 92.8267L113.902 89.8568ZM111.634 89.1008L110.218 91.7453L110.218 91.7453L111.634 89.1008ZM109.942 87.5528L107.433 89.1969L107.446 89.2172L107.46 89.2373L109.942 87.5528ZM108.898 84.8168L107.368 82.2366L105.516 83.3352L105.964 85.4411L108.898 84.8168ZM111.022 83.5568L113.875 82.6296L112.716 79.0636L109.492 80.9766L111.022 83.5568ZM112.174 85.7528L114.399 83.7401L114.399 83.7401L112.174 85.7528ZM114.01 86.7968L113.283 89.7072L113.293 89.7098L113.303 89.7124L114.01 86.7968ZM118.114 87.5168L115.714 89.3168L115.799 89.4301L115.894 89.5348L118.114 87.5168ZM117.97 89.5688L120.012 91.7672L120.052 91.7294L120.092 91.6901L117.97 89.5688ZM93.7422 90.0368L90.7601 89.7095L90.3949 93.0368H93.7422V90.0368ZM94.0662 87.0848V84.0848H91.3774L91.0841 86.7575L94.0662 87.0848ZM97.7382 86.7968L98.2122 89.7591L98.2122 89.7591L97.7382 86.7968ZM104.578 84.6728L105.87 87.3803L105.883 87.3742L105.896 87.368L104.578 84.6728ZM107.638 82.8728L109.359 85.3305L112.477 83.1478L109.626 80.6258L107.638 82.8728ZM105.478 81.4328L104.137 84.1161L104.137 84.1161L105.478 81.4328ZM102.778 80.4968L102.051 83.4072L102.093 83.4178L102.135 83.427L102.778 80.4968ZM98.6382 80.1728L98.4244 77.1804L98.4244 77.1804L98.6382 80.1728ZM97.6302 80.3168L98.0545 83.2867L98.1572 83.272L98.2588 83.2502L97.6302 80.3168ZM96.4782 80.5328L93.5425 81.1508L94.1675 84.1195L97.129 83.4614L96.4782 80.5328ZM95.9022 77.7968L95.0499 74.9204L92.3964 75.7066L92.9665 78.4148L95.9022 77.7968ZM97.8462 77.3648L98.2858 80.3324L98.3393 80.3245L98.3925 80.3147L97.8462 77.3648ZM103.102 77.6528L102.215 80.5187L102.246 80.5284L102.278 80.5374L103.102 77.6528ZM105.838 78.7328L104.435 81.3842L104.45 81.3925L104.466 81.4007L105.838 78.7328ZM108.178 80.0288L106.635 82.6013L106.653 82.6124L106.672 82.6232L108.178 80.0288ZM110.338 81.1448L109.111 83.8823L109.151 83.9002L109.191 83.9169L110.338 81.1448ZM113.254 81.5768L116.24 81.2865L115.977 78.5768H113.254V81.5768ZM113.506 84.1688V87.1688H116.812L116.492 83.8785L113.506 84.1688ZM110.662 84.6008L109.714 81.7548L109.714 81.7548L110.662 84.6008ZM108.106 85.7168L109.51 88.3682L109.524 88.3608L109.537 88.3534L108.106 85.7168ZM105.514 87.1208L106.911 89.7756L106.938 89.7613L106.965 89.7465L105.514 87.1208ZM102.49 88.5248L103.583 91.3185L103.61 91.3083L103.635 91.2976L102.49 88.5248ZM98.6742 89.6048L98.0858 86.6631L98.0763 86.665L98.6742 89.6048ZM101.842 93.5288L99.7209 91.4075L99.6843 91.4441L99.649 91.4819L101.842 93.5288ZM104.362 93.5288L102.169 95.5758L102.204 95.6136L102.241 95.6501L104.362 93.5288ZM104.362 96.0128L102.315 93.8196L102.24 93.8902L102.169 93.9659L104.362 96.0128ZM116.674 87.0368C115.783 87.0368 115.003 86.9836 114.326 86.887L113.478 92.8267C114.482 92.97 115.55 93.0368 116.674 93.0368V87.0368ZM114.409 86.8999C113.85 86.8041 113.407 86.6471 113.051 86.4564L110.218 91.7453C111.205 92.2745 112.274 92.6215 113.395 92.8137L114.409 86.8999ZM113.051 86.4564C112.834 86.3404 112.626 86.1658 112.425 85.8683L107.46 89.2373C108.17 90.2838 109.09 91.1413 110.218 91.7453L113.051 86.4564ZM112.452 85.9087C112.261 85.6182 112.023 85.0875 111.833 84.1925L105.964 85.4411C106.253 86.8021 106.711 88.0954 107.433 89.1969L112.452 85.9087ZM110.429 87.397L112.553 86.137L109.492 80.9766L107.368 82.2366L110.429 87.397ZM108.169 84.4841C108.554 85.6681 109.107 86.8339 109.95 87.7656L114.399 83.7401C114.33 83.6637 114.114 83.3655 113.875 82.6296L108.169 84.4841ZM109.95 87.7656C110.867 88.7795 112.035 89.3954 113.283 89.7072L114.738 83.8864C114.586 83.8484 114.5 83.8077 114.458 83.7839C114.419 83.7619 114.405 83.7471 114.399 83.7401L109.95 87.7656ZM113.303 89.7124C114.411 89.9809 115.678 90.0848 117.034 90.0848V84.0848C115.942 84.0848 115.193 83.9967 114.717 83.8813L113.303 89.7124ZM117.034 90.0848C117.013 90.0848 116.831 90.0835 116.568 89.9782C116.278 89.8622 115.962 89.6469 115.714 89.3168L120.514 85.7168C119.527 84.401 118.08 84.0848 117.034 84.0848V90.0848ZM115.894 89.5348C115.764 89.3919 115.649 89.2099 115.571 88.9998C115.494 88.7932 115.474 88.613 115.474 88.4888H121.474C121.474 87.4205 121.116 86.3592 120.334 85.4988L115.894 89.5348ZM115.474 88.4888C115.474 88.2271 115.535 87.9813 115.63 87.7782C115.719 87.586 115.817 87.4795 115.849 87.4475L120.092 91.6901C120.849 90.9331 121.474 89.8485 121.474 88.4888H115.474ZM115.929 87.3704C116.057 87.2516 116.213 87.1569 116.375 87.0981C116.531 87.0419 116.642 87.0368 116.674 87.0368V93.0368C117.836 93.0368 119.037 92.6724 120.012 91.7672L115.929 87.3704ZM96.7243 90.3641L97.0483 87.4121L91.0841 86.7575L90.7601 89.7095L96.7243 90.3641ZM94.0662 90.0848C95.4687 90.0848 96.8513 89.9769 98.2122 89.7591L97.2642 83.8345C96.2251 84.0007 95.1597 84.0848 94.0662 84.0848V90.0848ZM98.2122 89.7591C99.5537 89.5445 100.87 89.2356 102.161 88.8323L100.371 83.1054C99.358 83.422 98.3227 83.6651 97.2642 83.8345L98.2122 89.7591ZM102.161 88.8323C103.445 88.4311 104.682 87.9475 105.87 87.3803L103.286 81.9654C102.363 82.4061 101.392 82.7865 100.371 83.1054L102.161 88.8323ZM105.896 87.368C107.112 86.7732 108.267 86.0943 109.359 85.3305L105.918 80.4151C105.089 80.9953 104.204 81.5164 103.261 81.9777L105.896 87.368ZM109.626 80.6258C108.789 79.8854 107.847 79.2633 106.82 78.7495L104.137 84.1161C104.741 84.4184 105.239 84.7562 105.65 85.1198L109.626 80.6258ZM106.82 78.7495C105.76 78.2198 104.623 77.8303 103.421 77.5666L102.135 83.427C102.902 83.5954 103.564 83.8298 104.137 84.1161L106.82 78.7495ZM103.506 77.5864C102.287 77.2817 101.021 77.1368 99.7182 77.1368V83.1368C100.575 83.1368 101.349 83.2319 102.051 83.4072L103.506 77.5864ZM99.7182 77.1368C99.2725 77.1368 98.8406 77.1507 98.4244 77.1804L98.8519 83.1652C99.1078 83.1469 99.3959 83.1368 99.7182 83.1368V77.1368ZM98.4244 77.1804C97.9462 77.2146 97.4716 77.2827 97.0016 77.3834L98.2588 83.2502C98.4608 83.2069 98.6582 83.179 98.8519 83.1652L98.4244 77.1804ZM97.2059 77.347C96.7752 77.4085 96.3133 77.4963 95.8274 77.6043L97.129 83.4614C97.5071 83.3773 97.8132 83.3211 98.0545 83.2867L97.2059 77.347ZM99.4138 79.9148L98.8378 77.1788L92.9665 78.4148L93.5425 81.1508L99.4138 79.9148ZM96.7545 80.6732C97.2715 80.52 97.7817 80.4071 98.2858 80.3324L97.4065 74.3972C96.6147 74.5145 95.8289 74.6896 95.0499 74.9204L96.7545 80.6732ZM98.3925 80.3147C98.8777 80.2248 99.3183 80.1848 99.7182 80.1848V74.1848C98.9181 74.1848 98.1107 74.2648 97.2999 74.415L98.3925 80.3147ZM99.7182 80.1848C100.719 80.1848 101.541 80.3101 102.215 80.5187L103.989 74.787C102.647 74.3715 101.214 74.1848 99.7182 74.1848V80.1848ZM102.278 80.5374C103.112 80.7756 103.826 81.062 104.435 81.3842L107.242 76.0814C106.218 75.5397 105.109 75.106 103.926 74.7682L102.278 80.5374ZM104.466 81.4007C105.255 81.8064 105.977 82.2068 106.635 82.6013L109.722 77.4563C108.939 76.9868 108.101 76.5232 107.21 76.0649L104.466 81.4007ZM106.672 82.6232C107.495 83.1012 108.308 83.5225 109.111 83.8823L111.565 78.4073C110.976 78.1431 110.349 77.8204 109.685 77.4344L106.672 82.6232ZM109.191 83.9169C110.246 84.3534 111.356 84.5768 112.498 84.5768V78.5768C112.153 78.5768 111.822 78.5122 111.485 78.3728L109.191 83.9169ZM112.498 84.5768H113.254V78.5768H112.498V84.5768ZM110.268 81.8671L110.52 84.4591L116.492 83.8785L116.24 81.2865L110.268 81.8671ZM113.506 81.1688C112.194 81.1688 110.921 81.3522 109.714 81.7548L111.611 87.4469C112.131 87.2734 112.754 87.1688 113.506 87.1688V81.1688ZM109.714 81.7548C108.675 82.101 107.662 82.5445 106.675 83.0803L109.537 88.3534C110.231 87.9771 110.922 87.6766 111.611 87.4469L109.714 81.7548ZM106.703 83.0654C105.869 83.5068 104.989 83.9835 104.063 84.4951L106.965 89.7465C107.863 89.2501 108.712 88.7908 109.51 88.3682L106.703 83.0654ZM104.117 84.4661C103.299 84.8967 102.376 85.326 101.345 85.752L103.635 91.2976C104.812 90.8116 105.906 90.3049 106.911 89.7756L104.117 84.4661ZM101.397 85.7311C100.49 86.0861 99.3925 86.4017 98.0858 86.6631L99.2625 92.5466C100.836 92.2319 102.283 91.8276 103.583 91.3185L101.397 85.7311ZM98.0763 86.665C96.9048 86.9033 95.4688 87.0368 93.7422 87.0368V93.0368C95.7596 93.0368 97.6116 92.8824 99.2721 92.5446L98.0763 86.665ZM103.138 93.5528C103.251 93.5528 103.413 93.5748 103.59 93.6486C103.766 93.7221 103.891 93.8189 103.964 93.8915L99.7209 98.1341C100.637 99.0503 101.83 99.5528 103.138 99.5528V93.5528ZM103.964 93.8915C104.054 93.9818 104.16 94.1229 104.238 94.3126C104.316 94.5016 104.338 94.6716 104.338 94.7888H98.3382C98.3382 96.0554 98.8159 97.2291 99.7209 98.1341L103.964 93.8915ZM104.338 94.7888C104.338 94.9069 104.316 95.0623 104.25 95.228C104.184 95.3923 104.098 95.5083 104.035 95.5758L99.649 91.4819C98.8094 92.3814 98.3382 93.5274 98.3382 94.7888H104.338ZM103.964 95.6501C103.891 95.7227 103.766 95.8195 103.59 95.893C103.413 95.9668 103.251 95.9888 103.138 95.9888V89.9888C101.83 89.9888 100.637 90.4913 99.7209 91.4075L103.964 95.6501ZM103.138 95.9888C102.993 95.9888 102.799 95.9594 102.593 95.8686C102.389 95.7785 102.249 95.6613 102.169 95.5758L106.555 91.4819C105.669 90.5318 104.474 89.9888 103.138 89.9888V95.9888ZM102.241 95.6501C102.182 95.591 102.086 95.4743 102.01 95.2956C101.932 95.1134 101.902 94.9342 101.902 94.7888H107.902C107.902 93.4612 107.368 92.2922 106.484 91.4075L102.241 95.6501ZM101.902 94.7888C101.902 94.6441 101.932 94.4499 102.022 94.2439C102.113 94.0397 102.23 93.8995 102.315 93.8196L106.409 98.206C107.359 97.3192 107.902 96.1244 107.902 94.7888H101.902ZM102.169 93.9659C102.249 93.8803 102.389 93.7632 102.593 93.6731C102.799 93.5822 102.993 93.5528 103.138 93.5528V99.5528C104.474 99.5528 105.669 99.0098 106.555 98.0598L102.169 93.9659ZM116.664 90.0368L113.686 89.6736L113.276 93.0368H116.664V90.0368ZM117.024 87.0848V84.0848H114.368L114.046 86.7216L117.024 87.0848ZM120.336 86.9408L120.697 89.919L120.741 89.9136L120.785 89.907L120.336 86.9408ZM122.028 86.1128L124.396 87.9546L124.42 87.9238L124.443 87.8924L122.028 86.1128ZM122.244 81.8648L119.319 82.5333L119.322 82.5426L119.324 82.5519L122.244 81.8648ZM120.48 76.4288L119.438 73.6156L116.564 74.6799L117.69 77.5303L120.48 76.4288ZM123.396 75.3488L126.175 74.2197L125.081 71.5256L122.354 72.5356L123.396 75.3488ZM124.26 77.9768L121.363 78.7542L121.371 78.787L121.381 78.8195L124.26 77.9768ZM124.98 80.8928L127.922 80.3045L127.922 80.3045L124.98 80.8928ZM124.764 86.4728L121.979 85.3586L121.965 85.3933L121.952 85.4283L124.764 86.4728ZM123.252 88.5248L125.065 90.9149L125.065 90.9149L123.252 88.5248ZM120.552 89.6768L119.915 86.7453L119.901 86.7483L120.552 89.6768ZM123.216 71.1008L121.023 73.1478L121.093 73.2234L121.169 73.294L123.216 71.1008ZM123.216 68.5808L121.095 66.4595L121.058 66.4961L121.023 66.5339L123.216 68.5808ZM125.736 68.5808L123.543 70.6278L123.578 70.6656L123.615 70.7021L125.736 68.5808ZM125.736 71.1008L123.615 68.9795L123.615 68.9795L125.736 71.1008ZM118.284 71.1008L116.091 73.1478L116.161 73.2234L116.237 73.294L118.284 71.1008ZM118.284 68.5808L116.163 66.4595L116.126 66.4961L116.091 66.5339L118.284 68.5808ZM120.804 68.5808L118.611 70.6278L118.646 70.6656L118.683 70.7021L120.804 68.5808ZM120.804 71.1008L118.683 68.9795L118.683 68.9795L120.804 71.1008ZM119.642 90.4L120.002 87.448L114.046 86.7216L113.686 89.6736L119.642 90.4ZM117.024 90.0848C118.484 90.0848 119.728 90.0365 120.697 89.919L119.975 83.9626C119.361 84.0371 118.396 84.0848 117.024 84.0848V90.0848ZM120.785 89.907C121.989 89.7247 123.409 89.224 124.396 87.9546L119.66 84.271C119.811 84.0769 119.967 83.9823 120.034 83.9492C120.09 83.9219 120.06 83.9484 119.887 83.9747L120.785 89.907ZM124.443 87.8924C125.343 86.6715 125.532 85.188 125.532 83.9888H119.532C119.532 84.3049 119.503 84.4789 119.487 84.5472C119.471 84.6158 119.484 84.5082 119.613 84.3332L124.443 87.8924ZM125.532 83.9888C125.532 83.0865 125.39 82.1373 125.164 81.1777L119.324 82.5519C119.482 83.2243 119.532 83.6912 119.532 83.9888H125.532ZM125.169 81.1963C124.952 80.2493 124.673 79.2673 124.334 78.2521L118.642 80.1495C118.928 81.0063 119.152 81.8003 119.319 82.5333L125.169 81.1963ZM124.334 78.2521C124.005 77.265 123.651 76.2901 123.271 75.3273L117.69 77.5303C118.03 78.3916 118.347 79.2646 118.642 80.1495L124.334 78.2521ZM121.522 79.2421L124.438 78.1621L122.354 72.5356L119.438 73.6156L121.522 79.2421ZM120.617 76.4779C120.873 77.1088 121.124 77.8639 121.363 78.7542L127.158 77.1994C126.868 76.1218 126.543 75.1248 126.175 74.2197L120.617 76.4779ZM121.381 78.8195C121.645 79.7236 121.864 80.6107 122.038 81.4812L127.922 80.3045C127.712 79.2549 127.451 78.198 127.139 77.1341L121.381 78.8195ZM122.038 81.4812C122.204 82.3115 122.268 82.9464 122.268 83.4128H128.268C128.268 82.4392 128.14 81.3942 127.922 80.3045L122.038 81.4812ZM122.268 83.4128C122.268 84.3489 122.135 84.968 121.979 85.3586L127.549 87.587C128.065 86.2976 128.268 84.8767 128.268 83.4128H122.268ZM121.952 85.4283C121.833 85.7484 121.669 85.9605 121.439 86.1347L125.065 90.9149C126.227 90.0332 127.071 88.8772 127.576 87.5174L121.952 85.4283ZM121.439 86.1347C121.177 86.3334 120.712 86.5719 119.915 86.7453L121.189 92.6083C122.6 92.3017 123.935 91.7723 125.065 90.9149L121.439 86.1347ZM119.901 86.7483C119.097 86.9271 118.031 87.0368 116.664 87.0368V93.0368C118.321 93.0368 119.848 92.9065 121.203 92.6054L119.901 86.7483ZM124.512 68.6048C124.599 68.6048 124.738 68.6206 124.897 68.6828C125.058 68.7454 125.182 68.832 125.263 68.9076L121.169 73.294C122.099 74.1618 123.268 74.6048 124.512 74.6048V68.6048ZM125.409 69.0539C125.472 69.1213 125.558 69.2373 125.623 69.4016C125.69 69.5673 125.712 69.7228 125.712 69.8408H119.712C119.712 71.1022 120.183 72.2482 121.023 73.1478L125.409 69.0539ZM125.712 69.8408C125.712 69.9589 125.69 70.1143 125.623 70.28C125.558 70.4443 125.472 70.5603 125.409 70.6278L121.023 66.5339C120.183 67.4334 119.712 68.5794 119.712 69.8408H125.712ZM125.337 70.7021C125.265 70.7747 125.14 70.8715 124.964 70.945C124.787 71.0188 124.625 71.0408 124.512 71.0408V65.0408C123.203 65.0408 122.011 65.5433 121.095 66.4595L125.337 70.7021ZM124.512 71.0408C124.367 71.0408 124.173 71.0114 123.967 70.9206C123.763 70.8305 123.623 70.7133 123.543 70.6278L127.929 66.5339C127.042 65.5838 125.848 65.0408 124.512 65.0408V71.0408ZM123.615 70.7021C123.556 70.643 123.46 70.5263 123.384 70.3476C123.306 70.1654 123.276 69.9862 123.276 69.8408H129.276C129.276 68.5131 128.742 67.3442 127.857 66.4595L123.615 70.7021ZM123.276 69.8408C123.276 69.6954 123.306 69.5162 123.384 69.3341C123.46 69.1554 123.556 69.0386 123.615 68.9795L127.857 73.2221C128.742 72.3374 129.276 71.1685 129.276 69.8408H123.276ZM123.615 68.9795C123.705 68.8892 123.846 68.7829 124.036 68.7048C124.225 68.6269 124.395 68.6048 124.512 68.6048V74.6048C125.779 74.6048 126.952 74.1271 127.857 73.2221L123.615 68.9795ZM119.58 68.6048C119.667 68.6048 119.806 68.6206 119.965 68.6828C120.126 68.7454 120.25 68.832 120.331 68.9076L116.237 73.294C117.167 74.1618 118.336 74.6048 119.58 74.6048V68.6048ZM120.477 69.0539C120.54 69.1213 120.626 69.2373 120.691 69.4016C120.758 69.5673 120.78 69.7228 120.78 69.8408H114.78C114.78 71.1022 115.251 72.2482 116.091 73.1478L120.477 69.0539ZM120.78 69.8408C120.78 69.9589 120.758 70.1143 120.691 70.28C120.626 70.4443 120.54 70.5603 120.477 70.6278L116.091 66.5339C115.251 67.4334 114.78 68.5794 114.78 69.8408H120.78ZM120.405 70.7021C120.333 70.7747 120.208 70.8715 120.032 70.945C119.855 71.0188 119.693 71.0408 119.58 71.0408V65.0408C118.271 65.0408 117.079 65.5433 116.163 66.4595L120.405 70.7021ZM119.58 71.0408C119.435 71.0408 119.241 71.0114 119.035 70.9206C118.831 70.8305 118.691 70.7133 118.611 70.6278L122.997 66.5339C122.11 65.5838 120.916 65.0408 119.58 65.0408V71.0408ZM118.683 70.7021C118.624 70.643 118.528 70.5263 118.452 70.3476C118.374 70.1654 118.344 69.9862 118.344 69.8408H124.344C124.344 68.5131 123.81 67.3442 122.925 66.4595L118.683 70.7021ZM118.344 69.8408C118.344 69.6954 118.374 69.5162 118.452 69.3341C118.528 69.1554 118.624 69.0386 118.683 68.9795L122.925 73.2221C123.81 72.3374 124.344 71.1685 124.344 69.8408H118.344ZM118.683 68.9795C118.773 68.8892 118.914 68.7829 119.104 68.7048C119.293 68.6269 119.463 68.6048 119.58 68.6048V74.6048C120.847 74.6048 122.02 74.1271 122.925 73.2221L118.683 68.9795ZM130.734 89.8568L127.735 89.9408L127.817 92.8568H130.734V89.8568ZM130.014 64.1528V61.1528H126.929L127.015 64.2368L130.014 64.1528ZM132.93 64.1528L135.929 64.0688L135.847 61.1528H132.93V64.1528ZM133.65 89.8568V92.8568H136.735L136.649 89.7728L133.65 89.8568ZM133.733 89.7728L133.013 64.0688L127.015 64.2368L127.735 89.9408L133.733 89.7728ZM130.014 67.1528H132.93V61.1528H130.014V67.1528ZM129.931 64.2368L130.651 89.9408L136.649 89.7728L135.929 64.0688L129.931 64.2368ZM133.65 86.8568H130.734V92.8568H133.65V86.8568Z" fill="#FF00C7"/>
</g>
<g filter="url(#filter1_d_248_90)">
<rect x="67" y="11" width="21" height="34" rx="4" stroke="#FF00C7" stroke-width="5"/>
</g>
<g filter="url(#filter2_d_248_90)">
<path d="M84 118H71C68.7909 118 67 119.791 67 122V206C67 208.209 65.2091 210 63 210H38.1569C34.5932 210 32.8086 214.309 35.3284 216.828L75.1716 256.672C76.7337 258.234 79.2663 258.234 80.8284 256.672L120.672 216.828C123.191 214.309 121.407 210 117.843 210H92C89.7909 210 88 208.209 88 206V122C88 119.791 86.2091 118 84 118Z" stroke="#FF00C7" stroke-width="5"/>
</g>
<defs>
<filter id="filter0_dd_248_90" x="3.21307" y="42.1528" width="152.437" height="76.4" filterUnits="userSpaceOnUse" color-interpolation-filters="sRGB">
<feFlood flood-opacity="0" result="BackgroundImageFix"/>
<feColorMatrix in="SourceAlpha" type="matrix" values="0 0 0 0 0 0 0 0 0 0 0 0 0 0 0 0 0 0 127 0" result="hardAlpha"/>
<feOffset/>
<feGaussianBlur stdDeviation="11"/>
<feColorMatrix type="matrix" values="0 0 0 0 1 0 0 0 0 0 0 0 0 0 0.78 0 0 0 1 0"/>
<feBlend mode="normal" in2="BackgroundImageFix" result="effect1_dropShadow_248_90"/>
<feColorMatrix in="SourceAlpha" type="matrix" values="0 0 0 0 0 0 0 0 0 0 0 0 0 0 0 0 0 0 127 0" result="hardAlpha"/>
<feOffset dy="1"/>
<feGaussianBlur stdDeviation="1"/>
<feComposite in2="hardAlpha" operator="out"/>
<feColorMatrix type="matrix" values="0 0 0 0 0 0 0 0 0 0 0 0 0 0 0 0 0 0 1 0"/>
<feBlend mode="normal" in2="effect1_dropShadow_248_90" result="effect2_dropShadow_248_90"/>
<feBlend mode="normal" in="SourceGraphic" in2="effect2_dropShadow_248_90" result="shape"/>
</filter>
<filter id="filter1_d_248_90" x="56.5" y="0.5" width="42" height="55" filterUnits="userSpaceOnUse" color-interpolation-filters="sRGB">
<feFlood flood-opacity="0" result="BackgroundImageFix"/>
<feColorMatrix in="SourceAlpha" type="matrix" values="0 0 0 0 0 0 0 0 0 0 0 0 0 0 0 0 0 0 127 0" result="hardAlpha"/>
<feOffset/>
<feGaussianBlur stdDeviation="4"/>
<feColorMatrix type="matrix" values="0 0 0 0 1 0 0 0 0 0 0 0 0 0 0.78 0 0 0 1 0"/>
<feBlend mode="normal" in2="BackgroundImageFix" result="effect1_dropShadow_248_90"/>
<feBlend mode="normal" in="SourceGraphic" in2="effect1_dropShadow_248_90" result="shape"/>
</filter>
<filter id="filter2_d_248_90" x="23.6438" y="107.5" width="108.712" height="160.843" filterUnits="userSpaceOnUse" color-interpolation-filters="sRGB">
<feFlood flood-opacity="0" result="BackgroundImageFix"/>
<feColorMatrix in="SourceAlpha" type="matrix" values="0 0 0 0 0 0 0 0 0 0 0 0 0 0 0 0 0 0 127 0" result="hardAlpha"/>
<feOffset/>
<feGaussianBlur stdDeviation="4"/>
<feColorMatrix type="matrix" values="0 0 0 0 1 0 0 0 0 0 0 0 0 0 0.78 0 0 0 1 0"/>
<feBlend mode="normal" in2="BackgroundImageFix" result="effect1_dropShadow_248_90"/>
<feBlend mode="normal" in="SourceGraphic" in2="effect1_dropShadow_248_90" result="shape"/>
</filter>
</defs>
</svg>
