<svg width="236" height="135" viewBox="0 0 236 135" fill="none" xmlns="http://www.w3.org/2000/svg">
<g filter="url(#filter0_dd_248_83)">
<path d="M52.0549 76.9683L49.0645 76.7292L49.0609 76.7736L49.0587 76.8179L52.0549 76.9683ZM52.351 74.8055L49.4144 74.192L49.4082 74.2219L49.4026 74.2518L52.351 74.8055ZM52.9775 72.3212L53.7892 69.4331L50.9287 68.6292L50.0973 71.4819L52.9775 72.3212ZM55.6549 73.0736L58.5645 73.8045L59.2753 70.9748L56.4666 70.1855L55.6549 73.0736ZM55.1946 75.0354L52.2623 74.4019L52.2506 74.4557L52.241 74.5099L55.1946 75.0354ZM54.9642 76.7578L51.9745 76.5093L51.969 76.5756L51.9665 76.642L54.9642 76.7578ZM55.8133 80.6539L53.3391 82.3505L53.3612 82.3828L53.3842 82.4144L55.8133 80.6539ZM57.6646 82.21L59.0793 79.5645L59.0483 79.548L59.0169 79.5321L57.6646 82.21ZM60.2773 83.0411L60.7198 80.0739L60.7198 80.0739L60.2773 83.0411ZM67.8525 82.0875L66.7736 79.2882L66.7497 79.2974L66.7259 79.3071L67.8525 82.0875ZM70.9414 80.3765L72.8393 82.6999L72.8393 82.6999L70.9414 80.3765ZM72.6663 78.4003L70.046 76.9394L70.0267 76.9741L70.0083 77.0092L72.6663 78.4003ZM72.4547 75.8528L71.0764 78.5174L71.0764 78.5174L72.4547 75.8528ZM68.6895 74.6998L67.8501 77.58L67.892 77.5922L67.9342 77.6031L68.6895 74.6998ZM66.5496 73.8951L65.2771 76.6119L65.2771 76.6119L66.5496 73.8951ZM64.8406 72.6868L62.612 74.6951L62.6334 74.7189L62.6554 74.7423L64.8406 72.6868ZM64.4777 67.8392L61.6878 66.7364L61.6824 66.7499L61.6772 66.7635L64.4777 67.8392ZM66.223 64.9568L63.9617 62.9853L63.9478 63.0012L63.9342 63.0173L66.223 64.9568ZM68.9013 62.7432L70.4012 65.3413L70.4255 65.3273L70.4495 65.3128L68.9013 62.7432ZM74.7104 61.8528L73.871 64.733L73.9129 64.7452L73.9551 64.7561L74.7104 61.8528ZM76.3243 62.4554L79.1544 63.4506L79.9512 61.1849L77.9147 59.9117L76.3243 62.4554ZM75.3893 65.1144L74.3806 67.9397L77.2194 68.9532L78.2194 66.1096L75.3893 65.1144ZM73.9754 64.7093L74.6442 61.7848L74.6442 61.7848L73.9754 64.7093ZM70.3022 65.2473L68.9237 62.5828L68.908 62.591L68.8923 62.5993L70.3022 65.2473ZM68.4789 66.5821L66.3869 64.4318L66.3654 64.4527L66.3443 64.4741L68.4789 66.5821ZM67.2348 68.2945L69.9207 69.6308L69.9207 69.6308L67.2348 68.2945ZM67.5817 71.1182L65.9076 73.6077L65.9423 73.631L65.9777 73.6534L67.5817 71.1182ZM69.3205 71.8895L70.2298 69.0307L70.2298 69.0307L69.3205 71.8895ZM71.5216 72.5797L70.6346 75.4456L70.6895 75.4626L70.745 75.4775L71.5216 72.5797ZM73.7655 73.3381L72.6114 76.1073L72.6504 76.1235L72.6899 76.1387L73.7655 73.3381ZM75.4929 74.3638L73.4613 76.5711L73.4927 76.6001L73.5249 76.6281L75.4929 74.3638ZM75.6776 78.867L78.4049 80.1168L78.4049 80.1168L75.6776 78.867ZM73.3048 81.9913L71.2738 79.7834L71.2596 79.7965L71.2456 79.8097L73.3048 81.9913ZM69.2211 84.631L67.9899 81.8952L67.9781 81.9006L69.2211 84.631ZM59.2591 85.9613L58.7772 88.9224L58.7908 88.9245L59.2591 85.9613ZM55.7412 84.7481L57.2284 82.1427L57.222 82.139L57.2156 82.1354L55.7412 84.7481ZM53.233 82.3878L50.707 84.0062L50.7141 84.0173L50.7213 84.0283L53.233 82.3878ZM66.4712 92.06L68.3773 89.7433L68.3773 89.7433L66.4712 92.06ZM66.2308 89.5876L63.9141 87.6816L63.8813 87.7215L63.8498 87.7625L66.2308 89.5876ZM68.739 89.3437L66.7542 91.5933L66.793 91.6276L66.8329 91.6604L68.739 89.3437ZM68.9794 91.8161L66.7298 89.8313L66.6613 89.9089L66.5984 89.991L68.9794 91.8161ZM61.5623 92.5373L63.4684 90.2206L63.4684 90.2206L61.5623 92.5373ZM61.3219 90.0649L59.0053 88.1589L58.9724 88.1988L58.941 88.2399L61.3219 90.0649ZM63.8301 89.8211L61.8453 92.0707L61.8841 92.1049L61.924 92.1377L63.8301 89.8211ZM64.0705 92.2934L61.8209 90.3086L61.7525 90.3862L61.6895 90.4683L64.0705 92.2934ZM55.0752 78.5193C55.0355 78.1107 55.0247 77.6456 55.0512 77.1187L49.0587 76.8179C49.0195 77.5996 49.0316 78.3619 49.1034 79.1L55.0752 78.5193ZM55.0454 77.2074C55.0903 76.6454 55.1735 76.0301 55.2995 75.3592L49.4026 74.2518C49.2426 75.1037 49.1284 75.9303 49.0645 76.7292L55.0454 77.2074ZM55.2876 75.419C55.4345 74.716 55.6237 73.9636 55.8577 73.1606L50.0973 71.4819C49.8251 72.416 49.5966 73.3198 49.4144 74.192L55.2876 75.419ZM52.1659 75.2093L54.8433 75.9618L56.4666 70.1855L53.7892 69.4331L52.1659 75.2093ZM52.7453 72.3428C52.5644 73.063 52.4032 73.7496 52.2623 74.4019L58.127 75.6689C58.2521 75.0896 58.3978 74.4684 58.5645 73.8045L52.7453 72.3428ZM52.241 74.5099C52.1181 75.2009 52.0278 75.8683 51.9745 76.5093L57.9539 77.0063C57.9895 76.5776 58.0529 76.0968 58.1482 75.5609L52.241 74.5099ZM51.9665 76.642C51.9412 77.2954 51.9562 77.937 52.0171 78.5635L57.989 77.9828C57.957 77.6538 57.9461 77.2851 57.962 76.8735L51.9665 76.642ZM52.0171 78.5635C52.1481 79.9097 52.5559 81.2084 53.3391 82.3505L58.2874 78.9573C58.1716 78.7883 58.0392 78.4997 57.989 77.9828L52.0171 78.5635ZM53.3842 82.4144C54.1541 83.4768 55.1493 84.3007 56.3122 84.8879L59.0169 79.5321C58.6583 79.351 58.4193 79.1375 58.2424 78.8934L53.3842 82.4144ZM56.2499 84.8555C57.3563 85.4472 58.564 85.8188 59.8347 86.0083L60.7198 80.0739C60.033 79.9715 59.499 79.789 59.0793 79.5645L56.2499 84.8555ZM59.8347 86.0083C61.0822 86.1943 62.3687 86.2136 63.6839 86.0857L63.1032 80.1138C62.2208 80.1996 61.4298 80.1798 60.7198 80.0739L59.8347 86.0083ZM63.6839 86.0857C65.6154 85.8979 67.3967 85.5091 68.9792 84.8679L66.7259 79.3071C65.8029 79.6811 64.6116 79.9672 63.1032 80.1138L63.6839 86.0857ZM68.9314 84.8867C70.4003 84.3206 71.7287 83.6071 72.8393 82.6999L69.0436 78.0531C68.5458 78.4597 67.815 78.8868 66.7736 79.2882L68.9314 84.8867ZM72.8393 82.6999C73.8424 81.8805 74.7324 80.9223 75.3243 79.7913L70.0083 77.0092C69.9088 77.1994 69.6489 77.5586 69.0436 78.0531L72.8393 82.6999ZM75.2865 79.8612C75.794 78.951 76.2677 77.7438 76.1369 76.399L70.1651 76.9797C70.1447 76.7701 70.1802 76.6507 70.1782 76.6577C70.1778 76.6593 70.1705 76.6842 70.1492 76.7338C70.1279 76.7831 70.0951 76.8514 70.046 76.9394L75.2865 79.8612ZM76.1369 76.399C75.9663 74.6448 74.7328 73.6536 73.8331 73.1882L71.0764 78.5174C71.0505 78.504 70.858 78.4024 70.6467 78.1485C70.41 77.8642 70.2117 77.4595 70.1651 76.9797L76.1369 76.399ZM73.8331 73.1882C73.1436 72.8315 72.3693 72.5635 71.5698 72.3528L70.0402 78.1545C70.5771 78.2961 70.9027 78.4275 71.0764 78.5174L73.8331 73.1882ZM71.5698 72.3528C70.8981 72.1757 70.1898 71.9902 69.4448 71.7964L67.9342 77.6031C68.6735 77.7955 69.3755 77.9793 70.0402 78.1545L71.5698 72.3528ZM69.5289 71.8196C68.9283 71.6446 68.3601 71.4304 67.822 71.1783L65.2771 76.6119C66.1032 76.9988 66.9616 77.321 67.8501 77.58L69.5289 71.8196ZM67.822 71.1783C67.4392 70.999 67.1919 70.808 67.0258 70.6314L62.6554 74.7423C63.4037 75.5378 64.2957 76.1522 65.2771 76.6119L67.822 71.1783ZM67.0692 70.6785C67.0627 70.6713 67.0605 70.6678 67.0604 70.6675C67.0602 70.6674 67.0594 70.6661 67.0576 70.6619C67.0551 70.6559 67.0385 70.6157 67.0293 70.5208L61.0574 71.1015C61.186 72.4242 61.6861 73.6677 62.612 74.6951L67.0692 70.6785ZM67.0293 70.5208C66.9831 70.046 67.045 69.5222 67.2783 68.9148L61.6772 66.7635C61.1408 68.1601 60.9131 69.6176 61.0574 71.1015L67.0293 70.5208ZM67.2677 68.942C67.5468 68.2358 67.9537 67.5549 68.5118 66.8962L63.9342 63.0173C62.9781 64.1456 62.2215 65.3863 61.6878 66.7364L67.2677 68.942ZM68.4843 66.9282C69.0532 66.2757 69.6903 65.7517 70.4012 65.3413L67.4014 60.145C66.1032 60.8945 64.9547 61.8463 63.9617 62.9853L68.4843 66.9282ZM70.4495 65.3128C71.0834 64.9309 71.7182 64.7238 72.3791 64.6596L71.7984 58.6877C70.2139 58.8418 68.7237 59.3478 67.3532 60.1735L70.4495 65.3128ZM72.3791 64.6596C73.1109 64.5884 73.5847 64.6495 73.871 64.733L75.5498 58.9726C74.3471 58.6221 73.0732 58.5638 71.7984 58.6877L72.3791 64.6596ZM73.9551 64.7561C74.2573 64.8348 74.4742 64.9039 74.6211 64.9587C74.7789 65.0176 74.7962 65.0381 74.7339 64.9991L77.9147 59.9117C77.1807 59.4527 76.2791 59.161 75.4657 58.9494L73.9551 64.7561ZM73.4942 61.4602L72.5592 64.1192L78.2194 66.1096L79.1544 63.4506L73.4942 61.4602ZM76.3979 62.289C75.8445 62.0915 75.2576 61.9251 74.6442 61.7848L73.3066 67.6338C73.729 67.7304 74.0847 67.8341 74.3806 67.9397L76.3979 62.289ZM74.6442 61.7848C73.7998 61.5917 72.9418 61.5425 72.0841 61.6259L72.6648 67.5977C72.9059 67.5743 73.1152 67.59 73.3066 67.6338L74.6442 61.7848ZM72.0841 61.6259C70.9705 61.7342 69.9128 62.0711 68.9237 62.5828L71.6808 67.9119C72.0692 67.7109 72.393 67.6241 72.6648 67.5977L72.0841 61.6259ZM68.8923 62.5993C67.9727 63.0889 67.1362 63.7028 66.3869 64.4318L70.5709 68.7323C70.923 68.3897 71.302 68.1137 71.7122 67.8954L68.8923 62.5993ZM66.3443 64.4741C65.6169 65.2106 65.007 66.0373 64.5488 66.9582L69.9207 69.6308C70.0676 69.3355 70.2871 69.0205 70.6134 68.69L66.3443 64.4741ZM64.5488 66.9582C64.0413 67.9782 63.7593 69.1304 63.8786 70.357L69.8504 69.7763C69.8533 69.8059 69.8493 69.8197 69.8519 69.8071C69.8551 69.7915 69.8694 69.7339 69.9207 69.6308L64.5488 66.9582ZM63.8786 70.357C64.0291 71.9051 64.962 72.9718 65.9076 73.6077L69.2557 68.6287C69.2778 68.6436 69.4108 68.737 69.5519 68.9438C69.7047 69.1679 69.8194 69.4571 69.8504 69.7763L63.8786 70.357ZM65.9777 73.6534C66.7155 74.1202 67.5462 74.4733 68.4111 74.7484L70.2298 69.0307C69.7013 68.8625 69.3728 68.7014 69.1857 68.583L65.9777 73.6534ZM68.4111 74.7484C69.116 74.9726 69.8572 75.205 70.6346 75.4456L72.4086 69.7139C71.6446 69.4774 70.9184 69.2497 70.2298 69.0307L68.4111 74.7484ZM70.745 75.4775C71.4184 75.6579 72.0395 75.8689 72.6114 76.1073L74.9196 70.569C74.0842 70.2208 73.2094 69.9262 72.2982 69.682L70.745 75.4775ZM72.6899 76.1387C73.116 76.3023 73.345 76.4641 73.4613 76.5711L77.5245 72.1564C76.7404 71.4347 75.8178 70.9127 74.8412 70.5376L72.6899 76.1387ZM73.5249 76.6281C73.499 76.6055 73.4384 76.5432 73.3844 76.4387C73.3302 76.334 73.3128 76.2452 73.3087 76.2038L79.2806 75.6231C79.1453 74.2324 78.51 73.0113 77.4609 72.0995L73.5249 76.6281ZM73.3087 76.2038C73.3287 76.4093 73.3002 76.8536 72.9503 77.6173L78.4049 80.1168C79.0496 78.71 79.4325 77.1853 79.2806 75.6231L73.3087 76.2038ZM72.9503 77.6173C72.6531 78.2658 72.1316 78.9943 71.2738 79.7834L75.3359 84.1993C76.6471 82.9931 77.7074 81.6388 78.4049 80.1168L72.9503 77.6173ZM71.2456 79.8097C70.4512 80.5595 69.3868 81.2666 67.9899 81.8952L70.4523 87.3667C72.336 86.5189 73.994 85.4662 75.3641 84.1729L71.2456 79.8097ZM67.9781 81.9006C66.7261 82.4706 65.1548 82.8803 63.2098 83.0694L63.7905 89.0412C66.2407 88.803 68.4834 88.2631 70.4642 87.3613L67.9781 81.9006ZM63.2098 83.0694C61.9257 83.1943 60.769 83.1627 59.7274 82.9981L58.7908 88.9245C60.3941 89.1779 62.0648 89.209 63.7905 89.0412L63.2098 83.0694ZM59.741 83.0003C58.7637 82.8412 57.9366 82.547 57.2284 82.1427L54.254 87.3535C55.6392 88.1442 57.1574 88.6588 58.7772 88.9224L59.741 83.0003ZM57.2156 82.1354C56.621 81.7999 56.138 81.3494 55.7447 80.7472L50.7213 84.0283C51.6311 85.4213 52.8203 86.5445 54.2667 87.3608L57.2156 82.1354ZM55.7589 80.7693C55.4405 80.2723 55.1763 79.559 55.0752 78.5193L49.1034 79.1C49.2764 80.879 49.7746 82.5511 50.707 84.0062L55.7589 80.7693ZM67.523 89.4861C67.6358 89.4751 67.7987 89.4814 67.982 89.5377C68.1647 89.5938 68.298 89.6781 68.3773 89.7433L64.5651 94.3766C65.5657 95.1998 66.8012 95.5846 68.1037 95.4579L67.523 89.4861ZM68.3773 89.7433C68.4759 89.8244 68.5953 89.9546 68.6914 90.1358C68.7872 90.3165 68.8257 90.4835 68.837 90.6001L62.8652 91.1808C62.9878 92.4415 63.5768 93.5635 64.5651 94.3766L68.3773 89.7433ZM68.837 90.6001C68.8484 90.7176 68.8413 90.8746 68.7914 91.0458C68.7418 91.2157 68.6679 91.3395 68.6118 91.4127L63.8498 87.7625C63.1012 88.7391 62.7431 89.9253 62.8652 91.1808L68.837 90.6001ZM68.5475 91.4937C68.4822 91.5729 68.3677 91.6814 68.1992 91.7716C68.0302 91.8621 67.8716 91.8997 67.7588 91.9107L67.1781 85.9388C65.8756 86.0655 64.7373 86.681 63.9141 87.6816L68.5475 91.4937ZM67.7588 91.9107C67.6147 91.9247 67.4186 91.9142 67.2048 91.8437C66.9928 91.7738 66.842 91.6708 66.7542 91.5933L70.7237 87.0941C69.7492 86.2343 68.5075 85.8096 67.1781 85.9388L67.7588 91.9107ZM66.8329 91.6604C66.7683 91.6073 66.6621 91.5003 66.5686 91.3299C66.4732 91.1561 66.4265 90.9806 66.4124 90.8359L72.3843 90.2552C72.2558 88.9338 71.6112 87.822 70.645 87.0271L66.8329 91.6604ZM66.4124 90.8359C66.3984 90.6919 66.4089 90.4957 66.4794 90.2819C66.5493 90.0699 66.6523 89.9191 66.7298 89.8313L71.229 93.8008C72.0888 92.8263 72.5135 91.5846 72.3843 90.2552L66.4124 90.8359ZM66.5984 89.991C66.6696 89.8981 66.7977 89.768 66.9923 89.6585C67.1885 89.5481 67.379 89.5001 67.523 89.4861L68.1037 95.4579C69.4331 95.3287 70.5697 94.6726 71.3603 93.6412L66.5984 89.991ZM62.6142 89.9634C62.727 89.9524 62.8899 89.9587 63.0732 90.015C63.2558 90.0711 63.3891 90.1554 63.4684 90.2206L59.6563 94.8539C60.6568 95.6772 61.8923 96.0619 63.1949 95.9352L62.6142 89.9634ZM63.4684 90.2206C63.567 90.3018 63.6865 90.4319 63.7826 90.6131C63.8784 90.7938 63.9168 90.9608 63.9282 91.0775L57.9563 91.6581C58.0789 92.9188 58.6679 94.0408 59.6563 94.8539L63.4684 90.2206ZM63.9282 91.0775C63.9396 91.195 63.9324 91.3519 63.8825 91.5232C63.833 91.6931 63.759 91.8168 63.7029 91.89L58.941 88.2399C58.1924 89.2164 57.8343 90.4027 57.9563 91.6581L63.9282 91.0775ZM63.6386 91.971C63.5734 92.0503 63.4588 92.1587 63.2904 92.2489C63.1214 92.3394 62.9627 92.377 62.8499 92.388L62.2693 86.4161C60.9667 86.5428 59.8285 87.1583 59.0053 88.1589L63.6386 91.971ZM62.8499 92.388C62.7059 92.402 62.5097 92.3915 62.2959 92.321C62.0839 92.2511 61.9331 92.1481 61.8453 92.0707L65.8149 87.5715C64.8404 86.7117 63.5986 86.2869 62.2693 86.4161L62.8499 92.388ZM61.924 92.1377C61.8595 92.0846 61.7532 91.9776 61.6597 91.8072C61.5644 91.6335 61.5177 91.4579 61.5036 91.3132L67.4754 90.7325C67.3469 89.4111 66.7024 88.2994 65.7362 87.5044L61.924 92.1377ZM61.5036 91.3132C61.4896 91.1692 61.5 90.973 61.5705 90.7592C61.6405 90.5472 61.7435 90.3964 61.8209 90.3086L66.3201 94.2782C67.1799 93.3036 67.6047 92.0619 67.4754 90.7325L61.5036 91.3132ZM61.6895 90.4683C61.7607 90.3754 61.8889 90.2453 62.0835 90.1358C62.2797 90.0254 62.4701 89.9774 62.6142 89.9634L63.1949 95.9352C64.5242 95.806 65.6609 95.1499 66.4515 94.1185L61.6895 90.4683ZM84.2084 75.1801L83.299 78.039L83.3111 78.0428L83.3232 78.0466L84.2084 75.1801ZM81.9351 73.3757L84.5743 71.9494L84.5743 71.9494L81.9351 73.3757ZM80.9487 69.9269L83.9233 69.5373L83.922 69.5277L80.9487 69.9269ZM78.3263 50.3971L78.0359 47.4111L74.9388 47.7123L75.353 50.7963L78.3263 50.3971ZM81.2644 50.1114L84.2368 49.7054L83.8463 46.8462L80.9741 47.1254L81.2644 50.1114ZM83.7753 68.4946L80.8029 68.9006L80.8037 68.9065L83.7753 68.4946ZM84.3626 71.1864L81.5451 72.2168L81.5682 72.28L81.5941 72.3421L84.3626 71.1864ZM85.7063 72.3579L84.9054 75.249L84.9234 75.254L84.9415 75.2588L85.7063 72.3579ZM89.8677 72.749L87.6531 74.7728L87.7486 74.8773L87.8536 74.9724L89.8677 72.749ZM89.9229 74.8053L92.1675 76.7958L92.2043 76.7543L92.2396 76.7114L89.9229 74.8053ZM88.388 72.4106C86.6298 72.5816 85.6035 72.4711 85.0935 72.3137L83.3232 78.0466C84.9512 78.5493 86.9048 78.5831 88.9687 78.3825L88.388 72.4106ZM85.1177 72.3213C84.7257 72.1965 84.634 72.0598 84.5743 71.9494L79.2958 74.802C80.1771 76.4327 81.601 77.4989 83.299 78.039L85.1177 72.3213ZM84.5743 71.9494C84.3381 71.5122 84.0826 70.7538 83.9233 69.5373L77.9741 70.3166C78.189 71.9573 78.5911 73.498 79.2958 74.802L84.5743 71.9494ZM83.922 69.5277L81.2996 49.9978L75.353 50.7963L77.9754 70.3262L83.922 69.5277ZM78.6166 53.383L81.5547 53.0973L80.9741 47.1254L78.0359 47.4111L78.6166 53.383ZM78.292 50.5174L80.8029 68.9006L86.7477 68.0887L84.2368 49.7054L78.292 50.5174ZM80.8037 68.9065C80.9761 70.1504 81.207 71.2924 81.5451 72.2168L87.1801 70.156C87.0583 69.8231 86.8977 69.1706 86.7469 68.0828L80.8037 68.9065ZM81.5941 72.3421C82.2102 73.8179 83.3985 74.8316 84.9054 75.249L86.5072 69.4668C86.563 69.4822 86.7042 69.5353 86.8586 69.6699C87.0148 69.8061 87.0973 69.9498 87.1311 70.0308L81.5941 72.3421ZM84.9415 75.2588C86.1468 75.5765 87.6027 75.5493 89.0413 75.4095L88.4606 69.4376C87.176 69.5626 86.6022 69.4916 86.4711 69.457L84.9415 75.2588ZM89.0413 75.4095C89.0206 75.4115 88.839 75.4278 88.567 75.3485C88.2671 75.2611 87.9315 75.0774 87.6531 74.7728L92.0822 70.7252C90.9726 69.5111 89.5017 69.3364 88.4606 69.4376L89.0413 75.4095ZM87.8536 74.9724C87.7105 74.8427 87.5777 74.6728 87.4799 74.4711C87.3837 74.2729 87.3461 74.0956 87.3341 73.9719L93.306 73.3913C93.2026 72.328 92.7436 71.3063 91.8818 70.5256L87.8536 74.9724ZM87.3341 73.9719C87.3088 73.7115 87.3454 73.4609 87.4201 73.2496C87.4907 73.0496 87.5775 72.9343 87.6063 72.8992L92.2396 76.7114C92.9198 75.8846 93.4376 74.7446 93.306 73.3913L87.3341 73.9719ZM87.6784 72.8148C87.7943 72.6841 87.9403 72.5748 88.0964 72.5006C88.2459 72.4296 88.3559 72.4137 88.388 72.4106L88.9687 78.3825C90.1254 78.27 91.2848 77.7912 92.1675 76.7958L87.6784 72.8148ZM88.6789 75.3965L85.6791 75.3593L85.6376 78.7064L88.9692 78.3824L88.6789 75.3965ZM88.7157 72.427L88.4253 69.4411L85.7492 69.7013L85.7159 72.3898L88.7157 72.427ZM92.3425 71.785L93.101 74.6875L93.101 74.6875L92.3425 71.785ZM98.9449 69.009L100.493 71.5786L100.505 71.5713L100.517 71.5639L98.9449 69.009ZM101.816 66.9213L103.766 69.2009L106.659 66.7266L103.577 64.4924L101.816 66.9213ZM99.5271 65.6971L98.4514 68.4976L98.4514 68.4976L99.5271 65.6971ZM96.7492 65.0268L96.3067 67.9939L96.3495 68.0003L96.3926 68.0055L96.7492 65.0268ZM92.5973 65.105L92.0949 62.1473L92.0949 62.1473L92.5973 65.105ZM91.6079 65.3458L92.3176 68.2607L92.4185 68.2361L92.5174 68.2046L91.6079 65.3458ZM90.4822 65.6723L87.6202 66.5715L88.5295 69.4658L91.4134 68.5241L90.4822 65.6723ZM89.6441 63.0049L88.5175 60.2245L85.9525 61.2638L86.7821 63.9041L89.6441 63.0049ZM91.5372 62.3868L92.262 65.2979L92.3145 65.2849L92.3664 65.2699L91.5372 62.3868ZM96.7964 62.1648L96.1909 65.103L96.223 65.1096L96.2553 65.1155L96.7964 62.1648ZM99.6241 62.9749L98.4836 65.7497L98.5001 65.7564L98.5167 65.763L99.6241 62.9749ZM102.079 64.0383L100.791 66.7481L100.811 66.7574L100.83 66.7663L102.079 64.0383ZM104.336 64.9401L103.38 67.7835L103.421 67.7974L103.463 67.8101L104.336 64.9401ZM107.281 65.0878L110.224 64.5099L109.7 61.8384L106.99 62.1019L107.281 65.0878ZM107.782 67.6433L108.073 70.6292L111.363 70.3093L110.726 67.0654L107.782 67.6433ZM104.993 68.3485L103.774 65.6076L103.774 65.6076L104.993 68.3485ZM102.557 69.7066L104.211 72.2097L104.224 72.2011L104.237 72.1923L102.557 69.7066ZM100.113 71.3549L101.761 73.8619L101.787 73.8452L101.812 73.8278L100.113 71.3549ZM97.2395 73.0449L98.5979 75.7198L98.6229 75.7071L98.6477 75.6939L97.2395 73.0449ZM93.5459 74.4892L92.6756 71.6182L92.6663 71.621L93.5459 74.4892ZM97.7238 78.0255L95.4071 76.1194L95.3742 76.1593L95.3428 76.2004L97.7238 78.0255ZM100.232 77.7816L98.2472 80.0312L98.2859 80.0654L98.3259 80.0982L100.232 77.7816ZM100.472 80.2539L98.2227 78.2691L98.1543 78.3467L98.0914 78.4288L100.472 80.2539ZM91.6786 75.4336L91.7154 72.4641L85.7159 72.3898L85.6791 75.3593L91.6786 75.4336ZM89.006 75.4129C90.4019 75.2772 91.7675 75.0359 93.101 74.6875L91.5841 68.8824C90.566 69.1485 89.5137 69.3352 88.4253 69.4411L89.006 75.4129ZM93.101 74.6875C94.4154 74.344 95.696 73.9092 96.9416 73.3828L94.6061 67.856C93.6282 68.2693 92.6213 68.6114 91.5841 68.8824L93.101 74.6875ZM96.9416 73.3828C98.1805 72.8593 99.365 72.2583 100.493 71.5786L97.3967 66.4393C96.5203 66.9673 95.5907 67.4399 94.6061 67.856L96.9416 73.3828ZM100.517 71.5639C101.67 70.8542 102.754 70.0667 103.766 69.2009L99.8661 64.6416C99.0973 65.2993 98.2669 65.9036 97.3726 66.454L100.517 71.5639ZM103.577 64.4924C102.672 63.8365 101.675 63.3084 100.603 62.8965L98.4514 68.4976C99.0824 68.7399 99.6112 69.028 100.055 69.3501L103.577 64.4924ZM100.603 62.8965C99.4971 62.4719 98.3269 62.1942 97.1058 62.048L96.3926 68.0055C97.172 68.0988 97.8538 68.268 98.4514 68.4976L100.603 62.8965ZM97.1917 62.0596C95.9494 61.8743 94.6754 61.8526 93.3784 61.9787L93.959 67.9505C94.8119 67.8676 95.5915 67.8873 96.3067 67.9939L97.1917 62.0596ZM93.3784 61.9787C92.9348 62.0218 92.5062 62.0774 92.0949 62.1473L93.0996 68.0626C93.3525 68.0196 93.6382 67.9817 93.959 67.9505L93.3784 61.9787ZM92.0949 62.1473C91.6222 62.2276 91.1564 62.3413 90.6984 62.487L92.5174 68.2046C92.7143 68.142 92.9081 68.0951 93.0996 68.0626L92.0949 62.1473ZM90.8982 62.431C90.4754 62.5339 90.0242 62.666 89.5511 62.8205L91.4134 68.5241C91.7816 68.4039 92.0808 68.3183 92.3176 68.2607L90.8982 62.431ZM93.3443 64.7731L92.5062 62.1057L86.7821 63.9041L87.6202 66.5715L93.3443 64.7731ZM90.7708 65.7853C91.2706 65.5828 91.7674 65.421 92.262 65.2979L90.8124 59.4757C90.0356 59.669 89.2705 59.9194 88.5175 60.2245L90.7708 65.7853ZM92.3664 65.2699C92.8406 65.1335 93.2753 65.0511 93.6733 65.0124L93.0927 59.0405C92.2963 59.118 91.5005 59.2757 90.708 59.5037L92.3664 65.2699ZM93.6733 65.0124C94.6693 64.9155 95.5 64.9606 96.1909 65.103L97.4019 59.2265C96.0259 58.9429 94.581 58.8958 93.0927 59.0405L93.6733 65.0124ZM96.2553 65.1155C97.1082 65.272 97.8467 65.4879 98.4836 65.7497L100.765 60.2001C99.6936 59.7599 98.5469 59.4357 97.3375 59.214L96.2553 65.1155ZM98.5167 65.763C99.3411 66.0905 100.099 66.4191 100.791 66.7481L103.366 61.3286C102.542 60.937 101.663 60.5567 100.731 60.1868L98.5167 65.763ZM100.83 66.7663C101.696 67.1624 102.546 67.5031 103.38 67.7835L105.293 62.0966C104.681 61.8907 104.026 61.6302 103.327 61.3104L100.83 66.7663ZM103.463 67.8101C104.555 68.1425 105.681 68.2575 106.818 68.1469L106.238 62.1751C105.894 62.2085 105.559 62.1762 105.21 62.07L103.463 67.8101ZM106.818 68.1469L107.571 68.0737L106.99 62.1019L106.238 62.1751L106.818 68.1469ZM104.337 65.6657L104.838 68.2212L110.726 67.0654L110.224 64.5099L104.337 65.6657ZM107.492 64.6574C106.186 64.7843 104.937 65.0901 103.774 65.6076L106.213 71.0894C106.714 70.8664 107.324 70.702 108.073 70.6292L107.492 64.6574ZM103.774 65.6076C102.773 66.0527 101.808 66.5923 100.878 67.2209L104.237 72.1923C104.891 71.7507 105.549 71.3848 106.213 71.0894L103.774 65.6076ZM100.904 67.2035C100.117 67.7235 99.2869 68.2831 98.415 68.8819L101.812 73.8278C102.658 73.2468 103.457 72.7076 104.211 72.2097L100.904 67.2035ZM98.4658 68.8478C97.6931 69.3556 96.8165 69.8722 95.8312 70.396L98.6477 75.6939C99.7718 75.0963 100.811 74.4862 101.761 73.8619L98.4658 68.8478ZM95.881 70.3701C95.0125 70.8112 93.9508 71.2316 92.6756 71.6182L94.4162 77.3602C95.9517 76.8947 97.3524 76.3523 98.5979 75.7198L95.881 70.3701ZM92.6663 71.621C91.5234 71.9716 90.1071 72.2435 88.3885 72.4106L88.9692 78.3824C90.9771 78.1872 92.8055 77.8542 94.4255 77.3573L92.6663 71.621ZM99.016 77.9239C99.1288 77.913 99.2917 77.9192 99.475 77.9755C99.6577 78.0316 99.791 78.1159 99.8702 78.1811L96.0581 82.8145C97.0587 83.6377 98.2941 84.0224 99.5967 83.8958L99.016 77.9239ZM99.8702 78.1811C99.9688 78.2623 100.088 78.3924 100.184 78.5736C100.28 78.7543 100.319 78.9213 100.33 79.038L94.3582 79.6187C94.4807 80.8793 95.0698 82.0013 96.0581 82.8145L99.8702 78.1811ZM100.33 79.038C100.341 79.1555 100.334 79.3124 100.284 79.4837C100.235 79.6536 100.161 79.7774 100.105 79.8506L95.3428 76.2004C94.5942 77.177 94.2361 78.3632 94.3582 79.6187L100.33 79.038ZM100.04 79.9315C99.9752 80.0108 99.8607 80.1192 99.6922 80.2094C99.5232 80.3 99.3645 80.3375 99.2518 80.3485L98.6711 74.3767C97.3685 74.5033 96.2303 75.1188 95.4071 76.1194L100.04 79.9315ZM99.2518 80.3485C99.1077 80.3625 98.9116 80.3521 98.6978 80.2815C98.4858 80.2116 98.3349 80.1086 98.2472 80.0312L102.217 75.532C101.242 74.6722 100 74.2474 98.6711 74.3767L99.2518 80.3485ZM98.3259 80.0982C98.2613 80.0451 98.155 79.9381 98.0615 79.7677C97.9662 79.594 97.9195 79.4185 97.9054 79.2737L103.877 78.6931C103.749 77.3716 103.104 76.2599 102.138 75.4649L98.3259 80.0982ZM97.9054 79.2737C97.8914 79.1297 97.9019 78.9335 97.9724 78.7197C98.0423 78.5077 98.1453 78.3569 98.2227 78.2691L102.722 82.2387C103.582 81.2642 104.007 80.0224 103.877 78.6931L97.9054 79.2737ZM98.0914 78.4288C98.1626 78.3359 98.2907 78.2058 98.4853 78.0963C98.6815 77.986 98.872 77.9379 99.016 77.9239L99.5967 83.8958C100.926 83.7665 102.063 83.1104 102.853 82.079L98.0914 78.4288ZM125.813 71.1346L124.904 73.9935L124.916 73.9973L124.928 74.0011L125.813 71.1346ZM123.54 69.3302L126.179 67.9039L126.179 67.9039L123.54 69.3302ZM122.553 65.8815L125.528 65.4918L125.527 65.4822L122.553 65.8815ZM119.931 46.3516L119.64 43.3657L116.543 43.6668L116.958 46.7508L119.931 46.3516ZM122.869 46.0659L125.841 45.6599L125.451 42.8007L122.579 43.08L122.869 46.0659ZM125.38 64.4492L122.407 64.8552L122.408 64.861L125.38 64.4492ZM125.967 67.141L123.15 68.1714L123.173 68.2345L123.199 68.2966L125.967 67.141ZM127.311 68.3124L126.51 71.2035L126.528 71.2085L126.546 71.2133L127.311 68.3124ZM131.472 68.7035L129.258 70.7273L129.353 70.8319L129.458 70.9269L131.472 68.7035ZM131.527 70.7598L133.772 72.7503L133.809 72.7088L133.844 72.6659L131.527 70.7598ZM129.993 68.3651C128.234 68.5361 127.208 68.4257 126.698 68.2682L124.928 74.0011C126.556 74.5038 128.509 74.5377 130.573 74.337L129.993 68.3651ZM126.722 68.2758C126.33 68.1511 126.239 68.0143 126.179 67.9039L120.9 70.7565C121.782 72.3872 123.206 73.4534 124.904 73.9935L126.722 68.2758ZM126.179 67.9039C125.943 67.4668 125.687 66.7083 125.528 65.4918L119.579 66.2711C119.794 67.9118 120.196 69.4525 120.9 70.7565L126.179 67.9039ZM125.527 65.4822L122.904 45.9523L116.958 46.7508L119.58 66.2807L125.527 65.4822ZM120.221 49.3375L123.159 49.0518L122.579 43.08L119.64 43.3657L120.221 49.3375ZM119.897 46.4719L122.407 64.8552L128.352 64.0432L125.841 45.6599L119.897 46.4719ZM122.408 64.861C122.581 66.1049 122.812 67.2469 123.15 68.1714L128.785 66.1106C128.663 65.7777 128.502 65.1251 128.351 64.0373L122.408 64.861ZM123.199 68.2966C123.815 69.7725 125.003 70.7861 126.51 71.2035L128.112 65.4213C128.168 65.4368 128.309 65.4898 128.463 65.6244C128.619 65.7606 128.702 65.9043 128.736 65.9854L123.199 68.2966ZM126.546 71.2133C127.751 71.5311 129.207 71.5039 130.646 71.364L130.065 65.3922C128.781 65.5171 128.207 65.4461 128.076 65.4115L126.546 71.2133ZM130.646 71.364C130.625 71.366 130.444 71.3823 130.172 71.303C129.872 71.2156 129.536 71.0319 129.258 70.7273L133.687 66.6797C132.577 65.4656 131.106 65.2909 130.065 65.3922L130.646 71.364ZM129.458 70.9269C129.315 70.7973 129.182 70.6273 129.084 70.4256C128.988 70.2274 128.951 70.0501 128.939 69.9265L134.911 69.3458C134.807 68.2825 134.348 67.2609 133.486 66.4801L129.458 70.9269ZM128.939 69.9265C128.913 69.666 128.95 69.4155 129.025 69.2041C129.095 69.0042 129.182 68.8888 129.211 68.8538L133.844 72.6659C134.524 71.8391 135.042 70.6991 134.911 69.3458L128.939 69.9265ZM129.283 68.7693C129.399 68.6387 129.545 68.5293 129.701 68.4551C129.85 68.3841 129.96 68.3683 129.993 68.3651L130.573 74.337C131.73 74.2245 132.889 73.7457 133.772 72.7503L129.283 68.7693ZM130.283 71.351L127.284 71.2778L127.202 74.6648L130.574 74.3369L130.283 71.351ZM130.356 68.378L130.066 65.3921L127.422 65.6492L127.357 68.3048L130.356 68.378ZM132.697 67.8973L133.811 70.6824L133.864 70.6613L133.916 70.6381L132.697 67.8973ZM133.885 66.7327L131.167 65.4637L131.158 65.4835L131.149 65.5034L133.885 66.7327ZM134.454 64.3987L131.475 64.0421L131.475 64.0421L134.454 64.3987ZM134.87 60.4882L135.148 57.5011L132.175 57.2236L131.884 60.196L134.87 60.4882ZM137.717 60.7539L140.695 61.1182L141.069 58.0537L137.996 57.7668L137.717 60.7539ZM137.534 62.2185L134.558 61.8398L134.558 61.8398L137.534 62.2185ZM137.364 63.8264L134.375 63.5779L134.37 63.6346L134.367 63.6915L137.364 63.8264ZM137.834 66.4211L140.294 64.7042L140.294 64.7042L137.834 66.4211ZM139.318 67.181L138.738 70.1245L138.738 70.1245L139.318 67.181ZM143.763 67.5084L141.548 69.5323L141.644 69.6368L141.749 69.7318L143.763 67.5084ZM143.818 69.5647L146.063 71.5552L146.099 71.5137L146.135 71.4708L143.818 69.5647ZM138.88 70.1172L138.235 73.047L138.271 73.055L138.308 73.062L138.88 70.1172ZM136.824 69.0513L134.555 71.0141L134.575 71.037L134.595 71.0595L136.824 69.0513ZM135.797 67.0532L135.706 64.0546L131.881 64.1708L132.907 67.858L135.797 67.0532ZM136.879 67.0203L139.68 68.096L141.297 63.8848L136.788 64.0217L136.879 67.0203ZM135.806 69.0055L133.442 67.1594L133.417 67.1913L133.393 67.2238L135.806 69.0055ZM134.481 70.2556L132.886 67.7148L134.481 70.2556ZM132.706 70.9708L133.402 73.889L132.706 70.9708ZM133.172 56.4214L131.187 58.671L131.265 58.7394L131.347 58.8023L133.172 56.4214ZM132.928 53.9132L130.612 52.0071L130.579 52.0471L130.547 52.0881L132.928 53.9132ZM135.436 53.6693L133.452 55.9189L133.49 55.9531L133.53 55.986L135.436 53.6693ZM135.68 56.1775L137.997 58.0835L137.997 58.0835L135.68 56.1775ZM133.283 71.4243L133.355 68.4513L127.357 68.3048L127.284 71.2778L133.283 71.4243ZM130.646 71.3639C131.768 71.2548 132.872 71.0585 133.811 70.6824L131.582 65.1121C131.407 65.1819 130.95 65.3061 130.066 65.3921L130.646 71.3639ZM133.916 70.6381C135.111 70.1063 136.067 69.198 136.622 67.9621L131.149 65.5034C131.176 65.4425 131.229 65.358 131.311 65.2778C131.391 65.1993 131.459 65.1645 131.477 65.1564L133.916 70.6381ZM136.604 68.0018C137.056 67.0322 137.296 65.8961 137.433 64.7553L131.475 64.0421C131.373 64.9019 131.233 65.3219 131.167 65.4637L136.604 68.0018ZM137.433 64.7553C137.556 63.7248 137.697 62.3975 137.855 60.7803L131.884 60.196C131.728 61.7923 131.592 63.0721 131.475 64.0421L137.433 64.7553ZM134.591 63.4752L137.438 63.7409L137.996 57.7668L135.148 57.5011L134.591 63.4752ZM134.739 60.3896C134.686 60.8231 134.625 61.3065 134.558 61.8398L140.51 62.5971C140.578 62.0562 140.64 61.5631 140.695 61.1182L134.739 60.3896ZM134.558 61.8398C134.484 62.4199 134.423 62.9992 134.375 63.5779L140.354 64.0749C140.395 63.5839 140.447 63.0913 140.51 62.5971L134.558 61.8398ZM134.367 63.6915C134.34 64.2993 134.345 64.8925 134.4 65.4529L140.372 64.8722C140.352 64.6683 140.343 64.3707 140.361 63.9612L134.367 63.6915ZM134.4 65.4529C134.492 66.3963 134.801 67.3171 135.374 68.1381L140.294 64.7042C140.323 64.7455 140.345 64.7898 140.359 64.8297C140.373 64.8682 140.373 64.8858 140.372 64.8722L134.4 65.4529ZM135.374 68.1381C136.295 69.4583 137.74 69.9277 138.738 70.1245L139.898 64.2376C139.714 64.2013 139.69 64.1754 139.761 64.2116C139.839 64.2513 140.075 64.3906 140.294 64.7042L135.374 68.1381ZM138.738 70.1245C139.922 70.3577 141.391 70.3192 142.936 70.1689L142.356 64.1971C140.94 64.3348 140.189 64.295 139.898 64.2376L138.738 70.1245ZM142.936 70.1689C142.916 70.1709 142.734 70.1872 142.462 70.1079C142.162 70.0206 141.827 69.8368 141.548 69.5323L145.977 65.4846C144.868 64.2705 143.397 64.0958 142.356 64.1971L142.936 70.1689ZM141.749 69.7318C141.606 69.6022 141.473 69.4322 141.375 69.2305C141.279 69.0323 141.241 68.855 141.229 68.7314L147.201 68.1507C147.098 67.0874 146.639 66.0658 145.777 65.2851L141.749 69.7318ZM141.229 68.7314C141.204 68.4709 141.241 68.2204 141.315 68.009C141.386 67.8091 141.473 67.6937 141.501 67.6587L146.135 71.4708C146.815 70.644 147.333 69.504 147.201 68.1507L141.229 68.7314ZM141.574 67.5742C141.689 67.4436 141.835 67.3342 141.992 67.26C142.141 67.189 142.251 67.1732 142.283 67.17L142.864 73.1419C144.021 73.0294 145.18 72.5506 146.063 71.5552L141.574 67.5742ZM142.283 67.17C140.851 67.3093 139.95 67.269 139.453 67.1724L138.308 73.062C139.63 73.3191 141.191 73.3045 142.864 73.1419L142.283 67.17ZM139.525 67.1874C139.009 67.0737 138.966 66.9472 139.052 67.043L134.595 71.0595C135.6 72.1751 136.928 72.7593 138.235 73.047L139.525 67.1874ZM139.092 67.0884C138.967 66.9434 138.811 66.6932 138.687 66.2484L132.907 67.858C133.228 69.0097 133.757 70.0915 134.555 71.0141L139.092 67.0884ZM135.888 70.0518L136.97 70.0189L136.788 64.0217L135.706 64.0546L135.888 70.0518ZM134.079 65.9447C133.847 66.5468 133.622 66.9289 133.442 67.1594L138.171 70.8515C138.806 70.0383 139.295 69.097 139.68 68.096L134.079 65.9447ZM133.393 67.2238C133.211 67.4698 133.039 67.6185 132.886 67.7148L136.076 72.7965C136.923 72.265 137.635 71.5803 138.22 70.7872L133.393 67.2238ZM132.886 67.7148C132.71 67.8251 132.434 67.9515 132.01 68.0525L133.402 73.889C134.345 73.6642 135.252 73.3138 136.076 72.7965L132.886 67.7148ZM132.01 68.0525C131.496 68.1752 130.83 68.2837 129.993 68.3651L130.574 74.3369C131.6 74.2371 132.549 74.0921 133.402 73.889L132.01 68.0525ZM134.22 53.8116C134.307 53.8032 134.446 53.8056 134.612 53.852C134.778 53.8987 134.909 53.9729 134.997 54.0404L131.347 58.8023C132.356 59.5761 133.563 59.9039 134.801 59.7835L134.22 53.8116ZM135.157 54.1718C135.226 54.2328 135.322 54.34 135.404 54.4972C135.486 54.6556 135.523 54.8082 135.534 54.9257L129.563 55.5064C129.685 56.7619 130.265 57.8569 131.187 58.671L135.157 54.1718ZM135.534 54.9257C135.546 55.0432 135.539 55.2001 135.489 55.3714C135.439 55.5413 135.365 55.6651 135.309 55.7383L130.547 52.0881C129.799 53.0647 129.441 54.2509 129.563 55.5064L135.534 54.9257ZM135.245 55.8192C135.18 55.8985 135.065 56.0069 134.897 56.0972C134.728 56.1877 134.569 56.2252 134.456 56.2362L133.876 50.2644C132.573 50.391 131.435 51.0066 130.612 52.0071L135.245 55.8192ZM134.456 56.2362C134.312 56.2502 134.116 56.2398 133.902 56.1693C133.69 56.0993 133.539 55.9963 133.452 55.9189L137.421 51.4197C136.447 50.5599 135.205 50.1351 133.876 50.2644L134.456 56.2362ZM133.53 55.986C133.466 55.9329 133.359 55.8259 133.266 55.6554C133.171 55.4817 133.124 55.3062 133.11 55.1615L139.082 54.5808C138.953 53.2594 138.309 52.1476 137.342 51.3526L133.53 55.986ZM133.11 55.1615C133.096 55.0167 133.108 54.8355 133.168 54.6467C133.227 54.4614 133.31 54.336 133.364 54.2714L137.997 58.0835C138.792 57.1173 139.21 55.9022 139.082 54.5808L133.11 55.1615ZM133.364 54.2714C133.445 54.1728 133.575 54.0533 133.756 53.9572C133.937 53.8615 134.104 53.823 134.22 53.8116L134.801 59.7835C136.062 59.6609 137.184 59.0719 137.997 58.0835L133.364 54.2714ZM142.565 70.1568L139.566 70.0835L139.484 73.4706L142.856 73.1427L142.565 70.1568ZM142.638 67.1838L142.348 64.1979L139.704 64.4549L139.639 67.1105L142.638 67.1838ZM145.408 66.6612L146.414 69.4875L146.461 69.4708L146.508 69.4525L145.408 66.6612ZM146.812 65.4758L144.182 64.0336L144.174 64.0473L144.167 64.0611L146.812 65.4758ZM147.453 63.1348L150.431 63.4914L150.431 63.4914L147.453 63.1348ZM147.868 59.2242L148.147 56.2372L145.173 55.9597L144.882 58.932L147.868 59.2242ZM150.715 59.4899L153.693 59.8542L154.068 56.7898L150.994 56.5029L150.715 59.4899ZM150.532 60.9545L147.556 60.5759L147.556 60.5759L150.532 60.9545ZM150.363 62.5624L147.373 62.314L147.369 62.3707L147.366 62.4276L150.363 62.5624ZM151.168 65.631L149.707 68.2512L149.707 68.2512L151.168 65.631ZM152.797 66.0151L152.514 69.0018L152.561 69.0062L152.608 69.0092L152.797 66.0151ZM157.12 66.2097L154.905 68.2335L155.001 68.338L155.106 68.433L157.12 66.2097ZM157.175 68.266L159.419 70.2565L159.456 70.2149L159.492 70.172L157.175 68.266ZM152.434 68.9802L152.149 71.9666L152.189 71.9704L152.229 71.9732L152.434 68.9802ZM150.393 68.4552L148.881 71.0458L148.914 71.065L148.947 71.0834L150.393 68.4552ZM149.35 67.3992L146.628 68.6596L146.667 68.7438L146.711 68.8255L149.35 67.3992ZM148.796 65.7893L148.705 62.7906L144.965 62.9042L145.889 66.5303L148.796 65.7893ZM149.878 65.7564L152.678 66.8321L154.296 62.6208L149.787 62.7578L149.878 65.7564ZM148.805 67.7416L146.44 65.8955L146.415 65.9274L146.391 65.9599L148.805 67.7416ZM147.408 68.9986L145.9 66.4052L147.408 68.9986ZM145.382 69.7382L144.745 66.8066L144.735 66.8089L145.382 69.7382ZM150.671 73.1664L148.354 71.2604L148.321 71.3003L148.29 71.3414L150.671 73.1664ZM153.179 72.9226L151.194 75.1722L151.233 75.2064L151.273 75.2392L153.179 72.9226ZM153.419 75.3949L151.17 73.4101L151.101 73.4877L151.038 73.5698L153.419 75.3949ZM145.762 73.6438L143.445 71.7377L143.412 71.7776L143.381 71.8187L145.762 73.6438ZM148.27 73.3999L146.285 75.6495L146.324 75.6837L146.364 75.7165L148.27 73.3999ZM148.51 75.8722L146.261 73.8875L146.192 73.965L146.129 74.0471L148.51 75.8722ZM145.564 70.23L145.637 67.257L139.639 67.1105L139.566 70.0835L145.564 70.23ZM142.928 70.1697C144.217 70.0444 145.422 69.8406 146.414 69.4875L144.403 63.8348C144.089 63.9463 143.448 64.0909 142.348 64.1979L142.928 70.1697ZM146.508 69.4525C147.713 68.9779 148.786 68.1475 149.458 66.8905L144.167 64.0611C144.184 64.0288 144.206 63.9943 144.234 63.9607C144.261 63.9272 144.288 63.9004 144.312 63.8806C144.36 63.84 144.372 63.845 144.309 63.8699L146.508 69.4525ZM149.443 66.918C150.01 65.884 150.289 64.6779 150.431 63.4914L144.474 62.7782C144.377 63.5922 144.229 63.9468 144.182 64.0336L149.443 66.918ZM150.431 63.4914C150.555 62.4609 150.696 61.1336 150.854 59.5164L144.882 58.932C144.726 60.5284 144.59 61.8081 144.474 62.7782L150.431 63.4914ZM147.589 62.2112L150.437 62.477L150.994 56.5029L148.147 56.2372L147.589 62.2112ZM147.737 59.1256C147.684 59.5592 147.624 60.0425 147.556 60.5759L153.508 61.3332C153.577 60.7923 153.639 60.2992 153.693 59.8542L147.737 59.1256ZM147.556 60.5759C147.482 61.1559 147.421 61.7353 147.373 62.314L153.353 62.8109C153.393 62.32 153.445 61.8274 153.508 61.3332L147.556 60.5759ZM147.366 62.4276C147.339 63.0353 147.344 63.6286 147.398 64.189L153.37 63.6083C153.35 63.4044 153.342 63.1068 153.36 62.6973L147.366 62.4276ZM147.398 64.189C147.446 64.6786 147.526 65.1632 147.647 65.6359L153.461 64.154C153.425 64.0149 153.392 63.8353 153.37 63.6083L147.398 64.189ZM147.647 65.6359C147.969 66.8991 148.813 67.7527 149.707 68.2512L152.629 63.0107C152.725 63.0646 152.896 63.1791 153.069 63.3864C153.25 63.6031 153.388 63.8677 153.461 64.154L147.647 65.6359ZM149.707 68.2512C150.609 68.7543 151.677 68.9227 152.514 69.0018L153.079 63.0285C152.794 63.0015 152.612 62.9693 152.512 62.9457C152.465 62.9345 152.452 62.9291 152.467 62.9343C152.48 62.939 152.54 62.9611 152.629 63.0107L149.707 68.2512ZM152.608 69.0092C153.601 69.0718 154.858 69.0097 156.293 68.8701L155.713 62.8983C154.377 63.0282 153.497 63.0533 152.985 63.0211L152.608 69.0092ZM156.293 68.8701C156.273 68.8721 156.091 68.8885 155.819 68.8092C155.519 68.7218 155.184 68.5381 154.905 68.2335L159.334 64.1858C158.225 62.9717 156.754 62.7971 155.713 62.8983L156.293 68.8701ZM155.106 68.433C154.962 68.3034 154.83 68.1334 154.732 67.9318C154.636 67.7336 154.598 67.5562 154.586 67.4326L160.558 66.8519C160.455 65.7887 159.996 64.767 159.134 63.9863L155.106 68.433ZM154.586 67.4326C154.561 67.1721 154.597 66.9216 154.672 66.7102C154.743 66.5103 154.829 66.3949 154.858 66.3599L159.492 70.172C160.172 69.3453 160.69 68.2052 160.558 66.8519L154.586 67.4326ZM154.93 66.2755C155.046 66.1448 155.192 66.0354 155.348 65.9613C155.498 65.8903 155.608 65.8744 155.64 65.8713L156.221 71.8431C157.377 71.7306 158.537 71.2518 159.419 70.2565L154.93 66.2755ZM155.64 65.8713C154.254 66.0061 153.275 66.0306 152.638 65.9871L152.229 71.9732C153.341 72.0491 154.693 71.9917 156.221 71.8431L155.64 65.8713ZM152.719 65.9937C152.399 65.9633 152.17 65.9209 152.014 65.8809C151.855 65.84 151.811 65.8112 151.84 65.8269L148.947 71.0834C149.939 71.6297 151.079 71.8646 152.149 71.9666L152.719 65.9937ZM151.906 65.8646C151.886 65.8528 151.897 65.8562 151.922 65.8814C151.948 65.9076 151.972 65.9404 151.99 65.9729L146.711 68.8255C147.228 69.7821 147.983 70.5218 148.881 71.0458L151.906 65.8646ZM152.073 66.1387C151.952 65.8786 151.824 65.5224 151.703 65.0483L145.889 66.5303C146.08 67.2797 146.321 67.9967 146.628 68.6596L152.073 66.1387ZM148.887 68.7879L149.969 68.755L149.787 62.7578L148.705 62.7906L148.887 68.7879ZM147.077 64.6807C146.846 65.2828 146.62 65.6649 146.44 65.8955L151.17 69.5876C151.804 68.7744 152.294 67.8331 152.678 66.8321L147.077 64.6807ZM146.391 65.9599C146.246 66.1564 146.087 66.2967 145.9 66.4052L148.916 71.5921C149.825 71.0636 150.597 70.3659 151.219 69.5232L146.391 65.9599ZM145.9 66.4052C145.69 66.5275 145.327 66.68 144.745 66.8066L146.019 72.6697C147.043 72.4473 148.031 72.1068 148.916 71.5921L145.9 66.4052ZM144.735 66.8089C144.108 66.9473 143.296 67.0716 142.275 67.1708L142.856 73.1427C144.033 73.0282 145.098 72.8734 146.03 72.6675L144.735 66.8089ZM151.963 73.0649C152.076 73.0539 152.239 73.0602 152.422 73.1165C152.605 73.1726 152.738 73.2569 152.817 73.3221L149.005 77.9555C150.006 78.7787 151.241 79.1634 152.544 79.0367L151.963 73.0649ZM152.817 73.3221C152.916 73.4033 153.035 73.5334 153.131 73.7146C153.227 73.8953 153.266 74.0623 153.277 74.179L147.305 74.7597C147.428 76.0203 148.017 77.1423 149.005 77.9555L152.817 73.3221ZM153.277 74.179C153.288 74.2965 153.281 74.4534 153.231 74.6247C153.182 74.7946 153.108 74.9183 153.052 74.9915L148.29 71.3414C147.541 72.318 147.183 73.5042 147.305 74.7597L153.277 74.179ZM152.987 75.0725C152.922 75.1518 152.808 75.2602 152.639 75.3504C152.47 75.441 152.311 75.4785 152.199 75.4895L151.618 69.5176C150.315 69.6443 149.177 70.2598 148.354 71.2604L152.987 75.0725ZM152.199 75.4895C152.055 75.5035 151.858 75.493 151.645 75.4225C151.433 75.3526 151.282 75.2496 151.194 75.1722L155.164 70.673C154.189 69.8132 152.947 69.3884 151.618 69.5176L152.199 75.4895ZM151.273 75.2392C151.208 75.1861 151.102 75.0791 151.008 74.9087C150.913 74.735 150.866 74.5594 150.852 74.4147L156.824 73.834C156.696 72.5126 156.051 71.4009 155.085 70.6059L151.273 75.2392ZM150.852 74.4147C150.838 74.2707 150.849 74.0745 150.919 73.8607C150.989 73.6487 151.092 73.4979 151.17 73.4101L155.669 77.3797C156.529 76.4052 156.953 75.1634 156.824 73.834L150.852 74.4147ZM151.038 73.5698C151.109 73.4769 151.238 73.3468 151.432 73.2373C151.628 73.1269 151.819 73.0789 151.963 73.0649L152.544 79.0367C153.873 78.9075 155.01 78.2514 155.8 77.22L151.038 73.5698ZM147.054 73.5422C147.167 73.5313 147.33 73.5375 147.513 73.5938C147.696 73.6499 147.829 73.7342 147.908 73.7994L144.096 78.4328C145.097 79.256 146.332 79.6407 147.635 79.5141L147.054 73.5422ZM147.908 73.7994C148.007 73.8806 148.126 74.0107 148.222 74.192C148.318 74.3726 148.357 74.5396 148.368 74.6563L142.396 75.237C142.519 76.4976 143.108 77.6196 144.096 78.4328L147.908 73.7994ZM148.368 74.6563C148.379 74.7738 148.372 74.9307 148.322 75.102C148.273 75.2719 148.199 75.3957 148.143 75.4689L143.381 71.8187C142.632 72.7953 142.274 73.9815 142.396 75.237L148.368 74.6563ZM148.078 75.5498C148.013 75.6291 147.899 75.7375 147.73 75.8277C147.561 75.9183 147.403 75.9558 147.29 75.9668L146.709 69.995C145.407 70.1216 144.268 70.7372 143.445 71.7377L148.078 75.5498ZM147.29 75.9668C147.146 75.9808 146.95 75.9704 146.736 75.8998C146.524 75.8299 146.373 75.7269 146.285 75.6495L150.255 71.1503C149.28 70.2905 148.039 69.8657 146.709 69.995L147.29 75.9668ZM146.364 75.7165C146.299 75.6634 146.193 75.5565 146.1 75.386C146.004 75.2123 145.958 75.0368 145.943 74.892L151.915 74.3114C151.787 72.9899 151.142 71.8782 150.176 71.0832L146.364 75.7165ZM145.943 74.892C145.929 74.748 145.94 74.5519 146.01 74.338C146.08 74.126 146.183 73.9752 146.261 73.8875L150.76 77.857C151.62 76.8825 152.045 75.6407 151.915 74.3114L145.943 74.892ZM146.129 74.0471C146.201 73.9542 146.329 73.8241 146.523 73.7146C146.72 73.6043 146.91 73.5562 147.054 73.5422L147.635 79.5141C148.964 79.3848 150.101 78.7287 150.891 77.6973L146.129 74.0471ZM155.932 68.857L152.932 68.8199L152.891 72.1669L156.222 71.8429L155.932 68.857ZM155.969 65.8875L155.678 62.9016L153.002 63.1618L152.969 65.8504L155.969 65.8875ZM159.593 63.7267L156.596 63.5918L156.593 63.6445L156.593 63.6973L159.593 63.7267ZM159.393 60.9249L156.418 61.3147L156.419 61.3245L156.421 61.3343L159.393 60.9249ZM157.01 42.7461L156.72 39.7602L153.632 40.0604L154.035 43.136L157.01 42.7461ZM159.984 42.4569L162.959 42.0726L162.587 39.1897L159.694 39.471L159.984 42.4569ZM162.324 60.5675L159.348 60.9519L159.35 60.9633L159.351 60.9746L162.324 60.5675ZM163.176 63.3783L160.613 64.9378L160.646 64.9917L160.681 65.0442L163.176 63.3783ZM164.745 64.6363L165.682 61.7863L165.682 61.7863L164.745 64.6363ZM167.871 65.1643L165.656 67.1881L165.752 67.2926L165.857 67.3877L167.871 65.1643ZM167.926 67.2206L170.17 69.2111L170.207 69.1695L170.243 69.1266L167.926 67.2206ZM164.128 67.5899L163.011 70.3743L163.072 70.3987L163.134 70.4204L164.128 67.5899ZM162.465 66.4856L160.162 68.4076L160.212 68.4682L160.266 68.5262L162.465 66.4856ZM161.588 64.9071L161.582 61.9071L157.513 61.9151L158.724 65.8003L161.588 64.9071ZM162.348 64.9056L165.272 65.5744L166.113 61.8981L162.342 61.9056L162.348 64.9056ZM161.343 66.8479L163.566 68.862L163.571 68.8572L161.343 66.8479ZM159.301 68.1677L160.342 70.9814L160.376 70.9687L160.41 70.9552L159.301 68.1677ZM158.932 68.8942L158.969 65.9247L152.969 65.8504L152.932 68.8199L158.932 68.8942ZM156.259 68.8734C157.647 68.7385 159.194 68.4788 160.347 67.7831L157.247 62.6462C157.359 62.5787 157.327 62.6244 157.003 62.7015C156.706 62.7721 156.274 62.8437 155.678 62.9016L156.259 68.8734ZM160.347 67.7831C161.868 66.8653 162.577 65.3423 162.593 63.7561L156.593 63.6973C156.593 63.6483 156.606 63.4471 156.743 63.1908C156.887 62.9212 157.088 62.7418 157.247 62.6462L160.347 67.7831ZM162.59 63.8615C162.632 62.9141 162.537 61.7707 162.364 60.5154L156.421 61.3343C156.576 62.4585 156.614 63.183 156.596 63.5918L162.59 63.8615ZM162.367 60.535L159.985 42.3563L154.035 43.136L156.418 61.3147L162.367 60.535ZM157.3 45.732L160.274 45.4429L159.694 39.471L156.72 39.7602L157.3 45.732ZM157.009 42.8413L159.348 60.9519L165.299 60.1831L162.959 42.0726L157.009 42.8413ZM159.351 60.9746C159.545 62.3844 159.908 63.78 160.613 64.9378L165.739 61.8187C165.64 61.6561 165.435 61.1779 165.296 60.1604L159.351 60.9746ZM160.681 65.0442C161.413 66.141 162.448 67.0391 163.808 67.4863L165.682 61.7863C165.697 61.7915 165.715 61.7988 165.731 61.808C165.748 61.817 165.758 61.8247 165.762 61.8277C165.77 61.8342 165.735 61.8085 165.671 61.7123L160.681 65.0442ZM163.808 67.4863C164.863 67.8332 165.955 67.9307 167.044 67.8247L166.464 61.8529C166.12 61.8863 165.872 61.8488 165.682 61.7863L163.808 67.4863ZM167.044 67.8247C167.024 67.8267 166.842 67.8431 166.57 67.7638C166.27 67.6764 165.934 67.4927 165.656 67.1881L170.085 63.1405C168.976 61.9263 167.505 61.7517 166.464 61.8529L167.044 67.8247ZM165.857 67.3877C165.713 67.258 165.581 67.088 165.483 66.8864C165.387 66.6882 165.349 66.5108 165.337 66.3872L171.309 65.8065C171.206 64.7433 170.747 63.7216 169.885 62.9409L165.857 67.3877ZM165.337 66.3872C165.312 66.1268 165.348 65.8762 165.423 65.6648C165.494 65.4649 165.58 65.3495 165.609 65.3145L170.243 69.1266C170.923 68.2999 171.441 67.1598 171.309 65.8065L165.337 66.3872ZM165.681 65.2301C165.797 65.0994 165.943 64.99 166.099 64.9159C166.249 64.8449 166.359 64.829 166.391 64.8259L166.972 70.7977C168.128 70.6852 169.288 70.2064 170.17 69.2111L165.681 65.2301ZM166.391 64.8259C165.674 64.8956 165.289 64.818 165.122 64.7594L163.134 70.4204C164.365 70.8528 165.682 70.9231 166.972 70.7977L166.391 64.8259ZM165.245 64.8055C164.916 64.6737 164.751 64.5388 164.664 64.4451L160.266 68.5262C161.041 69.3614 161.985 69.9627 163.011 70.3743L165.245 64.8055ZM164.769 64.5637C164.59 64.3494 164.5 64.1678 164.452 64.0138L158.724 65.8003C159.027 66.7697 159.522 67.6404 160.162 68.4076L164.769 64.5637ZM161.594 67.9071L162.354 67.9056L162.342 61.9056L161.582 61.9071L161.594 67.9071ZM159.423 64.2368C159.366 64.4857 159.268 64.6697 159.115 64.8386L163.571 68.8572C164.42 67.916 164.991 66.8051 165.272 65.5744L159.423 64.2368ZM159.12 64.8338C159.032 64.9302 158.783 65.1451 158.192 65.3803L160.41 70.9552C161.584 70.4883 162.696 69.8233 163.566 68.862L159.12 64.8338ZM158.26 65.354C157.699 65.5615 156.851 65.7535 155.642 65.8711L156.222 71.8429C157.736 71.6958 159.134 71.4282 160.342 70.9814L158.26 65.354ZM166.674 67.8125L163.675 67.7392L163.592 71.1263L166.965 70.7984L166.674 67.8125ZM166.747 64.8395L166.457 61.8536L163.813 62.1107L163.748 64.7662L166.747 64.8395ZM170.219 64.4657L169.844 61.4893L169.841 61.4896L170.219 64.4657ZM172.039 64.2164L172.515 67.1784L172.607 67.1636L172.698 67.1432L172.039 64.2164ZM172.821 64.0681L173.111 67.054L184.634 65.9335L174.017 61.3169L172.821 64.0681ZM171.208 63.1036L169.404 65.5009L169.432 65.5217L169.46 65.5419L171.208 63.1036ZM169.511 61.2792L167.008 62.9329L167.019 62.9485L167.029 62.964L169.511 61.2792ZM169.171 54.8018L166.488 53.4599L166.476 53.4825L166.465 53.5053L169.171 54.8018ZM171.553 52.1468L169.937 49.6195L169.925 49.6266L169.914 49.6338L171.553 52.1468ZM177.073 50.8866L177.24 47.8913L177.24 47.8913L177.073 50.8866ZM178.906 51.1424L181.885 51.5026L182.209 48.8202L179.575 48.2179L178.906 51.1424ZM178.566 53.9606L178.123 56.9278L181.174 57.3828L181.544 54.3208L178.566 53.9606ZM177.033 53.8203L176.917 56.8181L176.917 56.8181L177.033 53.8203ZM173.345 54.5768L174.865 57.1628L174.903 57.1407L174.94 57.1176L173.345 54.5768ZM171.897 56.0558L169.252 54.6411L169.252 54.6411L171.897 56.0558ZM172.087 59.8714L169.546 61.4664L169.561 61.4903L169.577 61.514L172.087 59.8714ZM173.259 61.1319L171.42 63.502L171.42 63.502L173.259 61.1319ZM174.789 61.9958L173.714 64.7963L173.714 64.7963L174.789 61.9958ZM176.389 62.4551L175.848 65.4059L175.866 65.4092L175.884 65.4122L176.389 62.4551ZM177.804 62.4984L178.269 65.4621L178.661 65.4006L179.024 65.2393L177.804 62.4984ZM178.568 62.1709L179.704 64.9475L179.704 64.9475L178.568 62.1709ZM179.332 61.8435L180.552 64.5843L180.614 64.5566L180.675 64.5261L179.332 61.8435ZM180.398 61.2696L178.971 58.6304L178.945 58.6444L178.919 58.659L180.398 61.2696ZM182.044 60.35L184.728 59.0095L183.312 56.1734L180.558 57.744L182.044 60.35ZM183.302 62.8681L184.687 65.529L187.304 64.1668L185.986 61.5277L183.302 62.8681ZM178.56 65.0653L177.424 62.2887L177.413 62.2933L178.56 65.0653ZM173.265 66.7738L173.954 69.6935L173.969 69.6899L173.984 69.6862L173.265 66.7738ZM169.673 67.8857L169.746 64.9128L163.748 64.7662L163.675 67.7392L169.673 67.8857ZM167.037 67.8254C168.551 67.6782 169.743 67.5503 170.597 67.4418L169.841 61.4896C169.075 61.5869 167.952 61.7081 166.457 61.8536L167.037 67.8254ZM170.595 67.4421C171.432 67.3364 172.082 67.248 172.515 67.1784L171.563 61.2544C171.237 61.3068 170.673 61.3846 169.844 61.4893L170.595 67.4421ZM172.698 67.1432C172.867 67.1051 172.992 67.0793 173.077 67.063C173.12 67.0549 173.145 67.0507 173.156 67.0489C173.171 67.0466 173.152 67.05 173.111 67.054L172.53 61.0821C172.176 61.1166 171.743 61.2081 171.381 61.2895L172.698 67.1432ZM174.017 61.3169C173.833 61.2371 173.488 61.0471 172.956 60.6653L169.46 65.5419C170.172 66.0519 170.902 66.5049 171.624 66.8192L174.017 61.3169ZM173.011 60.7064C172.688 60.4632 172.343 60.1092 171.994 59.5945L167.029 62.964C167.693 63.9422 168.479 64.8045 169.404 65.5009L173.011 60.7064ZM172.014 59.6256C171.823 59.3362 171.642 58.8918 171.574 58.1851L165.602 58.7658C165.747 60.2568 166.182 61.6816 167.008 62.9329L172.014 59.6256ZM171.574 58.1851C171.487 57.2934 171.622 56.6287 171.876 56.0983L166.465 53.5053C165.677 55.1499 165.424 56.9344 165.602 58.7658L171.574 58.1851ZM171.854 56.1437C172.156 55.5408 172.584 55.0558 173.192 54.6597L169.914 49.6338C168.436 50.598 167.276 51.8831 166.488 53.4599L171.854 56.1437ZM173.17 54.674C173.785 54.2802 174.567 53.9997 175.594 53.9L175.013 47.9281C173.173 48.1071 171.455 48.6484 169.937 49.6195L173.17 54.674ZM175.594 53.9C175.971 53.8632 176.407 53.8541 176.906 53.882L177.24 47.8913C176.478 47.8488 175.734 47.858 175.013 47.9281L175.594 53.9ZM176.906 53.882C177.374 53.9081 177.817 53.9707 178.238 54.0669L179.575 48.2179C178.812 48.0434 178.033 47.9355 177.24 47.8913L176.906 53.882ZM175.928 50.7822L175.587 53.6004L181.544 54.3208L181.885 51.5026L175.928 50.7822ZM179.008 50.9934C178.403 50.9031 177.782 50.847 177.149 50.8225L176.917 56.8181C177.348 56.8347 177.75 56.8722 178.123 56.9278L179.008 50.9934ZM177.149 50.8225C176.51 50.7979 175.89 50.8087 175.299 50.8663L175.879 56.8381C176.148 56.812 176.49 56.8016 176.917 56.8181L177.149 50.8225ZM175.299 50.8663C174.045 50.9882 172.836 51.3541 171.75 52.036L174.94 57.1176C175.126 57.0005 175.413 56.8834 175.879 56.8381L175.299 50.8663ZM171.824 51.9908C170.745 52.6256 169.856 53.5099 169.252 54.6411L174.542 57.4706C174.59 57.3809 174.667 57.2792 174.865 57.1628L171.824 51.9908ZM169.252 54.6411C168.599 55.8616 168.414 57.186 168.54 58.4801L174.512 57.8994C174.48 57.5692 174.542 57.471 174.542 57.4706L169.252 54.6411ZM168.54 58.4801C168.643 59.5376 168.971 60.5495 169.546 61.4664L174.628 58.2763C174.576 58.1933 174.53 58.0841 174.512 57.8994L168.54 58.4801ZM169.577 61.514C170.078 62.2803 170.699 62.9432 171.42 63.502L175.098 58.7617C174.879 58.592 174.719 58.4146 174.597 58.2287L169.577 61.514ZM171.42 63.502C172.119 64.0452 172.887 64.4787 173.714 64.7963L175.865 59.1953C175.59 59.0896 175.337 58.9472 175.098 58.7617L171.42 63.502ZM173.714 64.7963C174.417 65.0663 175.129 65.274 175.848 65.4059L176.931 59.5043C176.619 59.4471 176.264 59.3486 175.865 59.1953L173.714 64.7963ZM175.884 65.4122C176.643 65.5419 177.456 65.5898 178.269 65.4621L177.339 59.5347C177.345 59.5337 177.215 59.5527 176.895 59.498L175.884 65.4122ZM179.024 65.2393C179.279 65.1257 179.505 65.0288 179.704 64.9475L177.432 59.3944C177.167 59.5028 176.884 59.6242 176.585 59.7575L179.024 65.2393ZM179.704 64.9475C179.969 64.839 180.252 64.7176 180.552 64.5843L178.112 59.1026C177.857 59.2161 177.631 59.313 177.432 59.3944L179.704 64.9475ZM180.675 64.5261C181.034 64.3465 181.436 64.129 181.876 63.8803L178.919 58.659C178.536 58.8761 178.228 59.0412 177.989 59.1608L180.675 64.5261ZM181.824 63.9089C182.287 63.6586 182.858 63.3398 183.531 62.9559L180.558 57.744C179.906 58.1159 179.379 58.4102 178.971 58.6304L181.824 63.9089ZM179.36 61.6904L180.618 64.2085L185.986 61.5277L184.728 59.0095L179.36 61.6904ZM181.916 60.2071C180.461 60.9649 178.964 61.6588 177.424 62.2887L179.696 67.8418C181.403 67.1433 183.067 66.3724 184.687 65.529L181.916 60.2071ZM177.413 62.2933C175.971 62.89 174.351 63.4151 172.545 63.8614L173.984 69.6862C176.04 69.1782 177.95 68.5643 179.707 67.8373L177.413 62.2933ZM172.575 63.8541C170.827 64.267 168.768 64.5947 166.384 64.8266L166.965 70.7984C169.549 70.5471 171.884 70.1824 173.954 69.6935L172.575 63.8541Z" fill="#FAFF00"/>
</g>
<g filter="url(#filter1_d_248_83)">
<path d="M212.075 17L218.753 85.6761C219.448 92.8221 214.218 99.1784 207.072 99.8732L23.936 117.681M195.067 18.6538L28.939 34.8075C21.793 35.5024 16.5633 41.8587 17.2581 49.0047L21.9676 97.4376" stroke="#FAFF00" stroke-width="8" stroke-linecap="round" stroke-linejoin="round"/>
</g>
<defs>
<filter id="filter0_dd_248_83" x="27.5982" y="18.402" width="179.474" height="97.4567" filterUnits="userSpaceOnUse" color-interpolation-filters="sRGB">
<feFlood flood-opacity="0" result="BackgroundImageFix"/>
<feColorMatrix in="SourceAlpha" type="matrix" values="0 0 0 0 0 0 0 0 0 0 0 0 0 0 0 0 0 0 127 0" result="hardAlpha"/>
<feOffset/>
<feGaussianBlur stdDeviation="11"/>
<feColorMatrix type="matrix" values="0 0 0 0 0.98 0 0 0 0 1 0 0 0 0 0 0 0 0 1 0"/>
<feBlend mode="normal" in2="BackgroundImageFix" result="effect1_dropShadow_248_83"/>
<feColorMatrix in="SourceAlpha" type="matrix" values="0 0 0 0 0 0 0 0 0 0 0 0 0 0 0 0 0 0 127 0" result="hardAlpha"/>
<feOffset dy="1"/>
<feGaussianBlur stdDeviation="1"/>
<feComposite in2="hardAlpha" operator="out"/>
<feColorMatrix type="matrix" values="0 0 0 0 0 0 0 0 0 0 0 0 0 0 0 0 0 0 1 0"/>
<feBlend mode="normal" in2="effect1_dropShadow_248_83" result="effect2_dropShadow_248_83"/>
<feBlend mode="normal" in="SourceGraphic" in2="effect2_dropShadow_248_83" result="shape"/>
</filter>
<filter id="filter1_d_248_83" x="0.195923" y="-0.000274658" width="235.619" height="134.681" filterUnits="userSpaceOnUse" color-interpolation-filters="sRGB">
<feFlood flood-opacity="0" result="BackgroundImageFix"/>
<feColorMatrix in="SourceAlpha" type="matrix" values="0 0 0 0 0 0 0 0 0 0 0 0 0 0 0 0 0 0 127 0" result="hardAlpha"/>
<feOffset/>
<feGaussianBlur stdDeviation="6.5"/>
<feComposite in2="hardAlpha" operator="out"/>
<feColorMatrix type="matrix" values="0 0 0 0 0.98 0 0 0 0 1 0 0 0 0 0 0 0 0 1 0"/>
<feBlend mode="normal" in2="BackgroundImageFix" result="effect1_dropShadow_248_83"/>
<feBlend mode="normal" in="SourceGraphic" in2="effect1_dropShadow_248_83" result="shape"/>
</filter>
</defs>
</svg>
